<svg xmlns="http://www.w3.org/2000/svg" viewBox="0 0 880 500" width="880" height="500"><g transform="translate(10,20) scale(0.95)"><defs><clipPath id="cut-left"><polygon points="0,20 199.33,20 202.8,80 203.34,140 218.14,200 220.06,222 194.06,232 216.06,239 189.98,260 178.94,282 204.94,292 182.94,299 199.89,320 207.73,380 0,380"/></clipPath></defs><g clip-path="url(#cut-left)"><circle cx="200" cy="200" r="166" fill="#FBF6EC"/><polygon points="327.58,206.3 302.87,239.65 271.77,257.72 252.42,277.8 228.55,296.54 195.87,324.99 151.68,329.45 101.89,319.06 67.77,280.94 72.65,228.5 93.68,187.6 131.5,166.14 154.3,150.46 169.68,124.17 197.1,102.45 237.54,80.58 286.95,81.93 321.41,116.24 347.32,157.68" fill="#F2C7B6" fill-opacity="0.54"/><polygon points="293.52,206.43 275.72,230.44 253.33,243.45 239.4,257.91 222.21,271.4 198.68,291.88 166.87,295.09 131.02,287.61 106.45,260.17 109.97,222.41 125.11,192.96 152.34,177.51 168.75,166.22 179.83,147.29 199.57,131.65 228.69,115.91 264.26,116.88 289.07,141.58 307.73,171.42" fill="#F2C7B6" fill-opacity="0.3"/><polygon points="359.77,210.46 336.03,266.43 296.95,306.68 239.97,301.74 200.59,303 162.63,293.05 122.5,274.26 84.54,237.19 67.86,180.18 98.02,128.88 155.66,115.81 201.45,126.11 239.1,121.87 273.56,140.22 318.44,162.32" fill="#F3E9D0" fill-opacity="0.5"/><polygon points="317.97,210.67 300.87,250.97 272.74,279.95 231.71,276.39 203.36,277.3 176.03,270.14 147.13,256.61 119.8,229.92 107.79,188.87 129.51,151.93 171.01,142.52 203.98,149.94 231.08,146.89 255.9,160.1 288.21,176.01" fill="#F3E9D0" fill-opacity="0.3"/><polygon points="345.82,204.17 318.02,253.8 268.75,273.23 242.72,315.43 192.03,342.53 154.65,294.11 140.08,252.48 81.12,230.84 67.75,174.67 122.18,142.86 163.27,129.17 192.08,66.36 248.15,76.19 264.61,139.72 295.52,164.57" fill="#F5E0D5" fill-opacity="0.59"/><polygon points="306.8,204.12 286.78,239.86 251.31,253.85 232.56,284.23 196.07,303.74 169.15,268.88 158.66,238.91 116.21,223.33 106.59,182.88 145.78,159.98 175.36,150.12 196.1,104.9 236.47,111.98 248.33,157.72 270.58,175.61" fill="#F5E0D5" fill-opacity="0.3"/><polygon points="303.8,200.02 332.76,256.19 304.92,306.82 244.77,314.5 197.94,309.85 160.42,296.12 110.7,302.07 58.16,280.32 45.76,226.57 76.8,179.28 105.73,149.23 116.38,105.49 148.77,62.99 201.83,48.18 247.24,80.59 272.1,123.14 275.82,165.91" fill="#E4E9EA" fill-opacity="0.61"/><polygon points="271.51,200.13 292.36,240.58 272.31,277.03 229,282.56 195.29,279.21 168.27,269.33 132.47,273.61 94.65,257.95 85.72,219.25 108.07,185.2 128.9,163.57 136.56,132.07 159.88,101.47 198.09,90.81 230.78,114.14 248.68,144.78 251.36,175.57" fill="#E4E9EA" fill-opacity="0.3"/><polygon points="207.31,241.87 211.1,265.17 194,264.43 195.78,242.75" fill="#211d16"/><polygon points="193.53,240.61 189.94,265.14 171.94,260.61 182.64,237.94" fill="#211d16"/><polygon points="179.9,237.82 169.36,258.64 155.12,247.54 171.41,230.09" fill="#CDB878"/><polygon points="170.14,227.9 151.68,245.33 142.24,230.33 162.69,219.44" fill="#211d16"/><polygon points="162.07,216.98 139.88,226.81 134.07,209.61 159.33,206.13" fill="#211d16"/><polygon points="158.18,203.78 133.68,205.82 134.67,187.94 158.91,192.48" fill="#B65432"/><polygon points="159.15,189.98 136.4,184.6 143.39,168.52 163.42,179.46" fill="#8a4b2d"/><polygon points="165.58,177.88 143.52,164.25 156.14,150.76 172.13,168.76" fill="#B65432"/><polygon points="173.9,166.97 159.09,148.35 174.58,140.6 183.42,160.54" fill="#211d16"/><polygon points="186.11,160.51 178.39,137.78 195.65,134 197.14,157.3" fill="#392E1F"/><polygon points="199.7,159 199.38,134.85 217.27,135.7 210.98,159.32" fill="#CDB878"/><polygon points="213.53,159.6 220.22,138.6 236.72,145.04 223.21,165.67" fill="#211d16"/><polygon points="225.45,166.8 240.51,147.55 252.55,160.13 233.51,174.76" fill="#211d16"/><polygon points="235.45,176.46 254.91,163.82 262.69,179.26 239.02,187.29" fill="#211d16"/><polygon points="239.99,189.56 263.5,183.38 265.29,201.49 241.41,200.65" fill="#211d16"/><polygon points="240.93,203.09 265.2,204.48 262.01,222.34 238.32,213.83" fill="#8a4b2d"/><polygon points="237.45,216.1 260.42,225.9 250.54,240.18 233.16,226.65" fill="#211d16"/><polygon points="231.16,228.26 248.95,244.04 234.35,255.04 222.85,236.2" fill="#211d16"/><polygon points="219.78,235.92 231.79,258.31 215.46,263.66 209.54,240.32" fill="#8a4b2d"/><polygon points="268.9,199.96 282.78,199.9 281.47,212.48 267.64,210.06" fill="#211d16"/><polygon points="267.62,212.99 280.78,215.41 278.19,227.9 266.1,223.23" fill="#211d16"/><polygon points="263.96,225.56 276.61,230.09 270.69,241.32 260.26,235.17" fill="#211d16"/><polygon points="258.15,237.32 268.37,244.25 262.04,254.48 251.51,245.07" fill="#8a4b2d"/><polygon points="250.82,248.39 259.12,256.96 250.97,264.63 242.46,254.53" fill="#B65432"/><polygon points="239.91,255.97 248.54,267.67 237.08,272.97 231.23,261.31" fill="#211d16"/><polygon points="228.91,263.19 233.81,274.77 222.94,280.4 219.15,266.38" fill="#211d16"/><polygon points="216.32,267.08 219.67,279.12 207.57,282.18 206.22,268.66" fill="#211d16"/><polygon points="203.36,269.54 203.94,282.78 192.35,282.4 193.11,268.64" fill="#B65432"/><polygon points="190.35,267.39 188.89,280.93 176.54,279.83 180.34,265.79" fill="#CDB878"/><polygon points="177.01,266.55 172.32,278.48 160.96,273.73 168.2,260.96" fill="#211d16"/><polygon points="165.9,259.15 158.07,271.56 149.41,264.21 156.98,254.17" fill="#211d16"/><polygon points="154.44,252.65 145.91,263.04 138.26,253.5 147.67,244.9" fill="#B65432"/><polygon points="146.38,242.23 134.98,251.68 127.18,241.16 139.49,234.55" fill="#211d16"/><polygon points="138.11,231.95 125.93,237.74 121.72,226.74 134.58,222.29" fill="#211d16"/><polygon points="132.67,219.82 120.43,223.87 119.3,211.36 131.68,209.49" fill="#8a4b2d"/><polygon points="130.44,206.69 118.43,207.26 117.89,195.55 129.82,196.32" fill="#8a4b2d"/><polygon points="131.43,193.5 117.32,191.81 119.81,180.22 132.12,183.19" fill="#211d16"/><polygon points="132.71,180.29 120.53,176.6 124.95,165.29 137.28,170.99" fill="#8a4b2d"/><polygon points="139.2,168.7 126.82,161.79 132.55,151.73 143.88,159.63" fill="#C97567"/><polygon points="145.8,157.43 134.95,149.09 142.81,140.15 152.35,149.54" fill="#C97567"/><polygon points="153.85,146.81 146.7,137.93 155.68,130.34 162.5,141.03" fill="#211d16"/><polygon points="165.29,139.97 159.26,128.61 169.4,122.23 174.58,135.62" fill="#211d16"/><polygon points="177.1,133.96 173.22,121.68 184.29,119.15 187.29,132.32" fill="#392E1F"/><polygon points="190.01,130.84 187.71,117.39 199.89,116.67 200.33,130.8" fill="#392E1F"/><polygon points="203.3,129.79 203.48,118.25 215.32,119.45 213.54,131.53" fill="#A8B4B8"/><polygon points="216.48,131.87 219.83,120 230.99,122.52 226.44,134.85" fill="#8a4b2d"/><polygon points="228.49,137.51 233.6,124.93 244.66,130.17 237.45,142.34" fill="#211d16"/><polygon points="239.75,144.1 248.19,132.48 256.99,140.19 248.51,149.61" fill="#9DBBA6"/><polygon points="250.35,151.93 258.99,143.75 267.55,152.41 257.08,159.77" fill="#211d16"/><polygon points="258.89,162.1 269.62,154.84 274.94,165.86 263.17,171.52" fill="#211d16"/><polygon points="263.66,174.47 275.93,169.89 280.4,180.87 266.39,184.23" fill="#211d16"/><polygon points="267.57,186.93 281.6,184.19 282.07,196.96 269.49,197.02" fill="#211d16"/><polygon points="278.82,168.2 299.93,159.26 304.33,177.33 283.96,181.21" fill="#211d16"/><polygon points="284.92,183.92 306.33,179.36 306.68,198.2 286.69,197.93" fill="#211d16"/><polygon points="285.08,200.78 307.36,201.63 306.4,217.86 284.51,214.73" fill="#211d16"/><polygon points="285.09,217.74 305.86,221.34 300.09,238.33 280.88,231.27" fill="#211d16"/><polygon points="278.28,233.27 300.21,241.86 290.13,257.15 273.57,246.66" fill="#C97567"/><polygon points="271.21,248.54 289.89,260.56 277.42,273.86 262.84,259.91" fill="#B65432"/><polygon points="259.55,260.65 275.45,276.98 263.21,288.68 249.76,270.76" fill="#8a4b2d"/><polygon points="247.27,272.17 259.11,290.69 244.64,298.98 234.8,278.66" fill="#8a4b2d"/><polygon points="232.35,280.18 239.72,299.27 224.33,305.41 219.01,284.92" fill="#211d16"/><polygon points="215.99,284.41 219.55,306.62 202.06,307.77 202.02,284.91" fill="#C97567"/><polygon points="199.22,285.33 198.54,308.11 182.11,307.11 185.37,283.96" fill="#211d16"/><polygon points="182.53,283.78 177.82,305.76 161.23,300.74 168.89,280.48" fill="#211d16"/><polygon points="166.01,279.97 158.85,298.66 142.32,289.74 154.44,271.84" fill="#211d16"/><polygon points="151.35,271.38 140.39,288.74 125.54,278.76 140.22,262.7" fill="#9DBBA6"/><polygon points="138.54,260.34 122.95,275.07 110.84,261.85 128.79,250.08" fill="#211d16"/><polygon points="127.26,247.65 109.25,259.62 101.02,243.18 121.24,234.84" fill="#B65432"/><polygon points="119.43,232.51 100.39,240.65 95.06,223.82 116.93,218.59" fill="#211d16"/><polygon points="116.42,215.83 94.65,220.52 91.58,202.05 113.04,202.07" fill="#211d16"/><polygon points="113.89,199.21 91.63,198.48 94.01,180.73 114.2,185.05" fill="#8a4b2d"/><polygon points="115.03,182.29 95.03,178.15 99.61,160.5 118.89,168.65" fill="#8a4b2d"/><polygon points="120.16,166.07 101.33,158.47 108.36,141.7 127.54,154.04" fill="#8a4b2d"/><polygon points="129.73,152.1 112.01,139.71 122.22,126.09 137.44,140.35" fill="#392E1F"/><polygon points="139.87,138.76 124.29,122.86 138.27,111.76 150.27,129.29" fill="#8a4b2d"/><polygon points="152.41,127.34 140.83,110.39 156.92,100.81 165.65,122.35" fill="#8a4b2d"/><polygon points="167.98,120.65 159.11,99.16 177.35,95.62 180.97,114.99" fill="#C97567"/><polygon points="184.09,116 179.47,93.14 196.72,91.8 197.95,113.91" fill="#B65432"/><polygon points="200.79,114.01 201.15,91.3 217.96,92.84 214.93,114.32" fill="#392E1F"/><polygon points="217.68,115.21 222.26,94.13 238.52,99.71 230.77,120.41" fill="#211d16"/><polygon points="233.72,120.66 242.35,101.06 258.16,108.14 245.9,127.62" fill="#211d16"/><polygon points="248.49,128.85 261.63,110.99 274.69,122.06 259.55,137.54" fill="#211d16"/><polygon points="261.49,139.63 276.92,124.69 288.32,137.23 269.7,150.98" fill="#392E1F"/><polygon points="272.55,152.48 289.58,141.11 298.32,155.72 278.55,165.25" fill="#A8B4B8"/><polygon points="229.71,306.19 236.47,329.65 222.68,332.71 219.37,309.19" fill="#392E1F"/><polygon points="216.75,311.14 220.59,332.2 206.45,334.17 205.83,311.24" fill="#211d16"/><polygon points="202.95,312.01 204.21,333.47 189.89,333.41 192.12,311.03" fill="#A8B4B8"/><polygon points="189.14,311.78 186.8,333.73 174.49,332.57 178.58,309.01" fill="#8a4b2d"/><polygon points="175.95,307.55 170.94,332.33 156.99,328.28 165.03,306.51" fill="#8a4b2d"/><polygon points="162.59,304.67 155.51,326.76 143.47,321.38 152.37,301.07" fill="#392E1F"/><polygon points="149.63,300.04 139.95,319.44 127.14,313.68 140.53,294.09" fill="#A8B4B8"/><polygon points="137.66,293.18 124.73,312.54 114.95,304.22 128.64,287.03" fill="#211d16"/><polygon points="126.92,284.53 111.99,300.56 102.17,292.9 119.53,276.6" fill="#8a4b2d"/><polygon points="117.12,274.88 100.01,289.12 91.97,279.91 110.52,266.28" fill="#211d16"/><polygon points="109.64,263.36 89.77,276.5 81.83,266.41 102.73,254.97" fill="#211d16"/><polygon points="101.12,252.53 81.06,263.32 75.44,251.37 98.13,242.01" fill="#392E1F"/><polygon points="95.73,239.86 73.53,247.95 70.78,235.7 91.87,229.69" fill="#8a4b2d"/><polygon points="91.26,226.84 70.49,232.93 66.64,218.62 90.75,215.93" fill="#9DBBA6"/><polygon points="90.46,213.07 65.79,215.89 65.15,202.09 88.57,202.4" fill="#CDB878"/><polygon points="88.63,199.51 65.73,199.88 66.62,186.1 89.8,188.76" fill="#C97567"/><polygon points="88.75,185.72 67.39,183.14 70.03,169.35 92.02,175.31" fill="#211d16"/><polygon points="93.23,172.64 68.76,165.6 74.58,153.98 96.15,162.33" fill="#211d16"/><polygon points="96.46,159.36 73.26,151.26 80.83,139.8 100.55,149.33" fill="#CDB878"/><polygon points="102.64,147.16 82.16,135.06 89.14,123.96 108.45,138.11" fill="#8a4b2d"/><polygon points="109.71,135.48 90.06,121.97 97.36,111.38 116.26,126.9" fill="#B65432"/><polygon points="117.55,124.17 101.8,109.39 109.3,99.54 125.59,116.85" fill="#C97567"/><polygon points="127.21,114.27 113.65,96.9 123.13,90.65 136.18,108.06" fill="#211d16"/><polygon points="138.58,106.41 126.49,87.58 138.22,80.38 148.71,102.34" fill="#A8B4B8"/><polygon points="150.77,100.01 141.14,79.85 152.13,74.51 160.73,95.78" fill="#9DBBA6"/><polygon points="163.24,94.19 156.5,73.43 168.11,70.04 173.94,92.18" fill="#CDB878"/><polygon points="176.72,91.38 171.3,69.34 184.95,65.08 187.41,90.04" fill="#C97567"/><polygon points="190.31,90.11 188.9,65.18 200.97,65.75 201.03,88.61" fill="#211d16"/><polygon points="203.91,89.09 204.07,65.29 217.97,66.16 214.61,90.32" fill="#9DBBA6"/><polygon points="217.74,88.97 221.77,66.09 233.58,69.17 228.06,92.64" fill="#211d16"/><polygon points="230.88,93.28 237.97,69.53 249.35,74.21 241.47,95.81" fill="#9DBBA6"/><polygon points="243.61,98.22 253.54,77.38 264.91,81.28 253.51,102.52" fill="#9DBBA6"/><polygon points="255.92,104.14 268.42,84.27 278.97,90.1 265.22,109.65" fill="#211d16"/><polygon points="266.86,112.27 281.94,93.03 290.77,100.93 275.29,118.93" fill="#A8B4B8"/><polygon points="278.46,119.8 294.88,102.73 302.7,114.04 285.89,127.78" fill="#8a4b2d"/><polygon points="286.93,130.68 304.19,116.09 313.81,126.21 292.46,139.95" fill="#8a4b2d"/><polygon points="294.65,141.98 314.66,130.22 321.44,141.08 299.84,151.43" fill="#211d16"/><polygon points="300.92,154.11 321.57,144.66 326.44,156.62 306.16,163.69" fill="#392E1F"/><polygon points="306.88,166.52 329.53,160.2 330.97,173.18 308.17,177.35" fill="#211d16"/><polygon points="309.3,180.07 332.6,175.57 334.84,188.17 312.07,190.66" fill="#211d16"/><polygon points="310.02,193.7 335.22,192.61 333.56,204.99 310.4,204.42" fill="#211d16"/><polygon points="311.6,207.38 333.53,207.89 333.56,222.26 310.85,218.26" fill="#8a4b2d"/><polygon points="309.04,220.88 331.87,224.44 329.46,238.04 306.48,231.36" fill="#392E1F"/><polygon points="306.6,234.43 326.85,241.79 323.06,254.2 301.07,243.88" fill="#211d16"/><polygon points="301.6,247.29 321.24,257.19 316.35,269.03 295.74,256.46" fill="#8a4b2d"/><polygon points="294.24,258.93 314.31,272.5 306.99,281.39 287.74,267.54" fill="#8a4b2d"/><polygon points="287.2,270.81 304.22,284.59 295.85,295.51 278.59,277.62" fill="#C97567"/><polygon points="277.29,280.42 293.3,296.55 282.74,305 268.42,286.66" fill="#211d16"/><polygon points="267.09,289.66 279.91,308.19 270.35,314.63 258.31,296.15" fill="#8a4b2d"/><polygon points="255.45,297.04 266.55,316.68 255.2,321.7 245.97,302.39" fill="#CDB878"/><polygon points="242.62,301.95 251.76,323.66 239.16,327.7 232.54,305.65" fill="#211d16"/><polygon points="61.97,197.7 42.62,197.8 42.31,186.39 61.18,187.44" fill="#211d16"/><polygon points="63.28,184.65 42.37,182.6 44.47,169.93 64.19,174.52" fill="#211d16"/><polygon points="65.63,171.78 44.46,166.3 48.92,157.23 67.25,161.74" fill="#211d16"/><polygon points="66.84,158.48 49.82,152.04 53.65,141.49 72.23,149.58" fill="#8a4b2d"/><polygon points="72.28,146.39 54.02,138.73 59.16,128.43 76.05,136.88" fill="#392E1F"/><polygon points="77.92,134.47 60.36,125.44 66.74,115.76 83.76,126.11" fill="#211d16"/><polygon points="85.62,123.78 68.95,112.37 75.45,101.88 91.03,115.17" fill="#211d16"/><polygon points="93.62,113.44 78.09,99.47 85.79,92.13 99.98,105.58" fill="#211d16"/><polygon points="101.72,103.12 88.35,88.98 95.14,81.02 108.75,95.75" fill="#211d16"/><polygon points="110.71,93.42 98.73,78.7 107.69,72.87 119.86,88.63" fill="#211d16"/><polygon points="121.96,86.46 110.82,70.51 120.45,63.97 130.04,80.2" fill="#211d16"/><polygon points="133.36,80.01 122.43,62.02 133.19,57.65 142.04,74.73" fill="#8a4b2d"/><polygon points="144.97,73.99 135.51,55.09 147.6,50.69 154.3,70.06" fill="#211d16"/><polygon points="156.58,67.46 151.54,49.65 161.49,46.82 166.47,64.74" fill="#211d16"/><polygon points="169.82,65.89 165.65,44.46 177.01,42.95 179.49,62.22" fill="#211d16"/><polygon points="182.72,63.77 180.1,42.93 192.55,41.09 192.75,62.11" fill="#8a4b2d"/><polygon points="195.72,61.91 195.86,42.6 207.75,42.99 205.93,61.11" fill="#8a4b2d"/><polygon points="208.81,63.08 209.42,43.24 222.27,42.39 219.13,62.1" fill="#211d16"/><polygon points="221.77,64.59 225.24,43.96 237.85,45.64 231.96,65.36" fill="#8a4b2d"/><polygon points="234.94,65.77 239.66,46.58 250.23,50.25 244.62,68.97" fill="#9DBBA6"/><polygon points="247.62,69.47 252.94,51.71 264.7,55.18 256.68,74.24" fill="#C97567"/><polygon points="260.01,74.18 267.89,58.1 279.23,63.19 268.07,80.74" fill="#211d16"/><polygon points="271.65,80.53 280.31,64.79 289.88,70.72 279.04,87.83" fill="#211d16"/><polygon points="282.26,88.46 295.18,72.84 303.16,79.45 289.58,95.58" fill="#211d16"/><polygon points="292.82,96.41 306.35,81.98 314.41,90.75 299.25,104.42" fill="#8a4b2d"/><polygon points="302.43,105.53 316.36,91.85 323.96,100.78 307.8,114.35" fill="#8a4b2d"/><polygon points="309.86,116.52 326.38,105.31 333.18,112.85 315.04,125.26" fill="#211d16"/><polygon points="316.58,127.79 334.9,116.28 339.73,126.06 323.58,135.51" fill="#211d16"/><polygon points="324.58,138.37 342.16,130.18 347.09,139.16 328.54,147.8" fill="#211d16"/><polygon points="330.09,150.41 348.84,143.22 352.12,155.4 331.44,160.7" fill="#392E1F"/><polygon points="332.37,163.51 352.93,158.73 355.34,170.22 336.6,172.97" fill="#8a4b2d"/><polygon points="336.18,176.09 356.8,172.21 357.83,183.88 336.44,186.29" fill="#392E1F"/><polygon points="338.52,189.09 357.95,187.99 358.52,200.34 339.13,199.31" fill="#211d16"/><polygon points="337.49,202.29 359.21,202.96 356.94,214.46 336.63,212.36" fill="#392E1F"/><polygon points="337.76,215.47 357.97,217.33 354.74,227.91 336.06,225.52" fill="#9DBBA6"/><polygon points="335.73,228.51 354.09,232.63 351.76,244.03 333.05,238.35" fill="#211d16"/><polygon points="332.9,241.43 350.11,247.51 348.32,257.41 328.33,250.64" fill="#211d16"/><polygon points="327.75,253.62 346.55,262.23 340.63,272.43 323.59,262.94" fill="#8a4b2d"/><polygon points="321.47,265.2 339.69,275.24 333.38,285.37 317.34,274.59" fill="#8a4b2d"/><polygon points="315.45,276.94 331.59,286.36 325.44,296.47 309.68,285.37" fill="#9DBBA6"/><polygon points="307.3,287.31 322.38,299.58 315.3,308.88 300.64,295.01" fill="#8a4b2d"/><polygon points="298.72,297.32 313.21,311.54 304.83,320.06 290.66,303.58" fill="#CDB878"/><polygon points="289.29,306.57 301.28,322.04 292.58,328.4 281.18,312.81" fill="#CDB878"/><polygon points="278.79,314.63 289.6,330.09 278.54,336.12 269.45,318.93" fill="#211d16"/><polygon points="266.87,320.4 276.64,338.11 266.9,343.6 257.95,325.24" fill="#211d16"/><polygon points="255.53,327.15 264.62,345.39 252.12,349.01 246.24,331.48" fill="#CDB878"/><polygon points="242.88,330.89 249.45,350.66 238.7,354.28 233.25,334.17" fill="#C97567"/><polygon points="230.34,334.79 235.65,354.29 223.49,357.08 220.51,337.8" fill="#211d16"/><polygon points="217.37,336.95 219.14,357.99 208.72,356.89 207.22,337.32" fill="#211d16"/><polygon points="204.26,337.54 204.58,357.75 193.62,358.31 194.12,337.91" fill="#211d16"/><polygon points="191.19,336.95 189.82,357.42 178.07,355.87 181.14,335.94" fill="#C97567"/><polygon points="178.2,335.56 175.24,355.17 162.65,353.85 168.13,334.29" fill="#211d16"/><polygon points="164.86,334.99 159.62,352.7 148.2,348.73 155.58,330.44" fill="#211d16"/><polygon points="152.68,329.69 145.5,348.48 135.4,344.47 142.93,326.61" fill="#211d16"/><polygon points="140.13,325.52 131.54,343.93 121.9,337.64 131.15,320.63" fill="#8a4b2d"/><polygon points="128.38,319.42 117.76,335.22 108,329.65 120.24,313.19" fill="#C97567"/><polygon points="118.56,310.44 105.55,327.75 95.77,320.19 110.03,304.87" fill="#392E1F"/><polygon points="107.4,303.34 94.89,318.12 85.99,309.23 99.93,296.37" fill="#8a4b2d"/><polygon points="97.55,294.48 83.79,306.79 76.47,296.93 92.33,285.54" fill="#392E1F"/><polygon points="90.11,283.5 73.91,297.14 66.95,286.65 84.3,275.17" fill="#8a4b2d"/><polygon points="82.24,272.94 65.02,282.3 59.19,273.57 76.51,264.44" fill="#A8B4B8"/><polygon points="76.18,261.25 57.99,269.45 52.54,259.06 72.18,251.91" fill="#8a4b2d"/><polygon points="69.8,249.63 51.29,256.05 49.38,244.39 66.96,239.78" fill="#C97567"/><polygon points="67.38,236.56 46.89,243.28 43.91,231.13 64.27,226.86" fill="#211d16"/><polygon points="63.34,223.99 44.86,227.97 43.6,215.89 61.83,213.89" fill="#211d16"/><polygon points="61.09,210.94 43.08,211.95 41.83,200.28 60.98,200.69" fill="#211d16"/><circle cx="200" cy="200" r="168" fill="none" stroke="#211d16" stroke-width="3"/><circle cx="200" cy="200" r="31" fill="#F2C7B6"/><circle cx="200" cy="200" r="24" fill="#8a4b2d" stroke="#392E1F" stroke-width="1.5"/></g></g><g transform="translate(470,20) scale(0.95)"><defs><clipPath id="cut-right"><polygon points="400,20 199.33,20 202.8,80 203.34,140 218.14,200 220.06,222 194.06,232 216.06,239 189.98,260 178.94,282 204.94,292 182.94,299 199.89,320 207.73,380 400,380"/></clipPath></defs><g clip-path="url(#cut-right)"><circle cx="200" cy="200" r="166" fill="#FBF6EC"/><polygon points="327.58,206.3 302.87,239.65 271.77,257.72 252.42,277.8 228.55,296.54 195.87,324.99 151.68,329.45 101.89,319.06 67.77,280.94 72.65,228.5 93.68,187.6 131.5,166.14 154.3,150.46 169.68,124.17 197.1,102.45 237.54,80.58 286.95,81.93 321.41,116.24 347.32,157.68" fill="#F2C7B6" fill-opacity="0.54"/><polygon points="293.52,206.43 275.72,230.44 253.33,243.45 239.4,257.91 222.21,271.4 198.68,291.88 166.87,295.09 131.02,287.61 106.45,260.17 109.97,222.41 125.11,192.96 152.34,177.51 168.75,166.22 179.83,147.29 199.57,131.65 228.69,115.91 264.26,116.88 289.07,141.58 307.73,171.42" fill="#F2C7B6" fill-opacity="0.3"/><polygon points="359.77,210.46 336.03,266.43 296.95,306.68 239.97,301.74 200.59,303 162.63,293.05 122.5,274.26 84.54,237.19 67.86,180.18 98.02,128.88 155.66,115.81 201.45,126.11 239.1,121.87 273.56,140.22 318.44,162.32" fill="#F3E9D0" fill-opacity="0.5"/><polygon points="317.97,210.67 300.87,250.97 272.74,279.95 231.71,276.39 203.36,277.3 176.03,270.14 147.13,256.61 119.8,229.92 107.79,188.87 129.51,151.93 171.01,142.52 203.98,149.94 231.08,146.89 255.9,160.1 288.21,176.01" fill="#F3E9D0" fill-opacity="0.3"/><polygon points="345.82,204.17 318.02,253.8 268.75,273.23 242.72,315.43 192.03,342.53 154.65,294.11 140.08,252.48 81.12,230.84 67.75,174.67 122.18,142.86 163.27,129.17 192.08,66.36 248.15,76.19 264.61,139.72 295.52,164.57" fill="#F5E0D5" fill-opacity="0.59"/><polygon points="306.8,204.12 286.78,239.86 251.31,253.85 232.56,284.23 196.07,303.74 169.15,268.88 158.66,238.91 116.21,223.33 106.59,182.88 145.78,159.98 175.36,150.12 196.1,104.9 236.47,111.98 248.33,157.72 270.58,175.61" fill="#F5E0D5" fill-opacity="0.3"/><polygon points="303.8,200.02 332.76,256.19 304.92,306.82 244.77,314.5 197.94,309.85 160.42,296.12 110.7,302.07 58.16,280.32 45.76,226.57 76.8,179.28 105.73,149.23 116.38,105.49 148.77,62.99 201.83,48.18 247.24,80.59 272.1,123.14 275.82,165.91" fill="#E4E9EA" fill-opacity="0.61"/><polygon points="271.51,200.13 292.36,240.58 272.31,277.03 229,282.56 195.29,279.21 168.27,269.33 132.47,273.61 94.65,257.95 85.72,219.25 108.07,185.2 128.9,163.57 136.56,132.07 159.88,101.47 198.09,90.81 230.78,114.14 248.68,144.78 251.36,175.57" fill="#E4E9EA" fill-opacity="0.3"/><polygon points="207.31,241.87 211.1,265.17 194,264.43 195.78,242.75" fill="#211d16"/><polygon points="193.53,240.61 189.94,265.14 171.94,260.61 182.64,237.94" fill="#211d16"/><polygon points="179.9,237.82 169.36,258.64 155.12,247.54 171.41,230.09" fill="#CDB878"/><polygon points="170.14,227.9 151.68,245.33 142.24,230.33 162.69,219.44" fill="#211d16"/><polygon points="162.07,216.98 139.88,226.81 134.07,209.61 159.33,206.13" fill="#211d16"/><polygon points="158.18,203.78 133.68,205.82 134.67,187.94 158.91,192.48" fill="#B65432"/><polygon points="159.15,189.98 136.4,184.6 143.39,168.52 163.42,179.46" fill="#8a4b2d"/><polygon points="165.58,177.88 143.52,164.25 156.14,150.76 172.13,168.76" fill="#B65432"/><polygon points="173.9,166.97 159.09,148.35 174.58,140.6 183.42,160.54" fill="#211d16"/><polygon points="186.11,160.51 178.39,137.78 195.65,134 197.14,157.3" fill="#392E1F"/><polygon points="199.7,159 199.38,134.85 217.27,135.7 210.98,159.32" fill="#CDB878"/><polygon points="213.53,159.6 220.22,138.6 236.72,145.04 223.21,165.67" fill="#211d16"/><polygon points="225.45,166.8 240.51,147.55 252.55,160.13 233.51,174.76" fill="#211d16"/><polygon points="235.45,176.46 254.91,163.82 262.69,179.26 239.02,187.29" fill="#211d16"/><polygon points="239.99,189.56 263.5,183.38 265.29,201.49 241.41,200.65" fill="#211d16"/><polygon points="240.93,203.09 265.2,204.48 262.01,222.34 238.32,213.83" fill="#8a4b2d"/><polygon points="237.45,216.1 260.42,225.9 250.54,240.18 233.16,226.65" fill="#211d16"/><polygon points="231.16,228.26 248.95,244.04 234.35,255.04 222.85,236.2" fill="#211d16"/><polygon points="219.78,235.92 231.79,258.31 215.46,263.66 209.54,240.32" fill="#8a4b2d"/><polygon points="268.9,199.96 282.78,199.9 281.47,212.48 267.64,210.06" fill="#211d16"/><polygon points="267.62,212.99 280.78,215.41 278.19,227.9 266.1,223.23" fill="#211d16"/><polygon points="263.96,225.56 276.61,230.09 270.69,241.32 260.26,235.17" fill="#211d16"/><polygon points="258.15,237.32 268.37,244.25 262.04,254.48 251.51,245.07" fill="#8a4b2d"/><polygon points="250.82,248.39 259.12,256.96 250.97,264.63 242.46,254.53" fill="#B65432"/><polygon points="239.91,255.97 248.54,267.67 237.08,272.97 231.23,261.31" fill="#211d16"/><polygon points="228.91,263.19 233.81,274.77 222.94,280.4 219.15,266.38" fill="#211d16"/><polygon points="216.32,267.08 219.67,279.12 207.57,282.18 206.22,268.66" fill="#211d16"/><polygon points="203.36,269.54 203.94,282.78 192.35,282.4 193.11,268.64" fill="#B65432"/><polygon points="190.35,267.39 188.89,280.93 176.54,279.83 180.34,265.79" fill="#CDB878"/><polygon points="177.01,266.55 172.32,278.48 160.96,273.73 168.2,260.96" fill="#211d16"/><polygon points="165.9,259.15 158.07,271.56 149.41,264.21 156.98,254.17" fill="#211d16"/><polygon points="154.44,252.65 145.91,263.04 138.26,253.5 147.67,244.9" fill="#B65432"/><polygon points="146.38,242.23 134.98,251.68 127.18,241.16 139.49,234.55" fill="#211d16"/><polygon points="138.11,231.95 125.93,237.74 121.72,226.74 134.58,222.29" fill="#211d16"/><polygon points="132.67,219.82 120.43,223.87 119.3,211.36 131.68,209.49" fill="#8a4b2d"/><polygon points="130.44,206.69 118.43,207.26 117.89,195.55 129.82,196.32" fill="#8a4b2d"/><polygon points="131.43,193.5 117.32,191.81 119.81,180.22 132.12,183.19" fill="#211d16"/><polygon points="132.71,180.29 120.53,176.6 124.95,165.29 137.28,170.99" fill="#8a4b2d"/><polygon points="139.2,168.7 126.82,161.79 132.55,151.73 143.88,159.63" fill="#C97567"/><polygon points="145.8,157.43 134.95,149.09 142.81,140.15 152.35,149.54" fill="#C97567"/><polygon points="153.85,146.81 146.7,137.93 155.68,130.34 162.5,141.03" fill="#211d16"/><polygon points="165.29,139.97 159.26,128.61 169.4,122.23 174.58,135.62" fill="#211d16"/><polygon points="177.1,133.96 173.22,121.68 184.29,119.15 187.29,132.32" fill="#392E1F"/><polygon points="190.01,130.84 187.71,117.39 199.89,116.67 200.33,130.8" fill="#392E1F"/><polygon points="203.3,129.79 203.48,118.25 215.32,119.45 213.54,131.53" fill="#A8B4B8"/><polygon points="216.48,131.87 219.83,120 230.99,122.52 226.44,134.85" fill="#8a4b2d"/><polygon points="228.49,137.51 233.6,124.93 244.66,130.17 237.45,142.34" fill="#211d16"/><polygon points="239.75,144.1 248.19,132.48 256.99,140.19 248.51,149.61" fill="#9DBBA6"/><polygon points="250.35,151.93 258.99,143.75 267.55,152.41 257.08,159.77" fill="#211d16"/><polygon points="258.89,162.1 269.62,154.84 274.94,165.86 263.17,171.52" fill="#211d16"/><polygon points="263.66,174.47 275.93,169.89 280.4,180.87 266.39,184.23" fill="#211d16"/><polygon points="267.57,186.93 281.6,184.19 282.07,196.96 269.49,197.02" fill="#211d16"/><polygon points="278.82,168.2 299.93,159.26 304.33,177.33 283.96,181.21" fill="#211d16"/><polygon points="284.92,183.92 306.33,179.36 306.68,198.2 286.69,197.93" fill="#211d16"/><polygon points="285.08,200.78 307.36,201.63 306.4,217.86 284.51,214.73" fill="#211d16"/><polygon points="285.09,217.74 305.86,221.34 300.09,238.33 280.88,231.27" fill="#211d16"/><polygon points="278.28,233.27 300.21,241.86 290.13,257.15 273.57,246.66" fill="#C97567"/><polygon points="271.21,248.54 289.89,260.56 277.42,273.86 262.84,259.91" fill="#B65432"/><polygon points="259.55,260.65 275.45,276.98 263.21,288.68 249.76,270.76" fill="#8a4b2d"/><polygon points="247.27,272.17 259.11,290.69 244.64,298.98 234.8,278.66" fill="#8a4b2d"/><polygon points="232.35,280.18 239.72,299.27 224.33,305.41 219.01,284.92" fill="#211d16"/><polygon points="215.99,284.41 219.55,306.62 202.06,307.77 202.02,284.91" fill="#C97567"/><polygon points="199.22,285.33 198.54,308.11 182.11,307.11 185.37,283.96" fill="#211d16"/><polygon points="182.53,283.78 177.82,305.76 161.23,300.74 168.89,280.48" fill="#211d16"/><polygon points="166.01,279.97 158.85,298.66 142.32,289.74 154.44,271.84" fill="#211d16"/><polygon points="151.35,271.38 140.39,288.74 125.54,278.76 140.22,262.7" fill="#9DBBA6"/><polygon points="138.54,260.34 122.95,275.07 110.84,261.85 128.79,250.08" fill="#211d16"/><polygon points="127.26,247.65 109.25,259.62 101.02,243.18 121.24,234.84" fill="#B65432"/><polygon points="119.43,232.51 100.39,240.65 95.06,223.82 116.93,218.59" fill="#211d16"/><polygon points="116.42,215.83 94.65,220.52 91.58,202.05 113.04,202.07" fill="#211d16"/><polygon points="113.89,199.21 91.63,198.48 94.01,180.73 114.2,185.05" fill="#8a4b2d"/><polygon points="115.03,182.29 95.03,178.15 99.61,160.5 118.89,168.65" fill="#8a4b2d"/><polygon points="120.16,166.07 101.33,158.47 108.36,141.7 127.54,154.04" fill="#8a4b2d"/><polygon points="129.73,152.1 112.01,139.71 122.22,126.09 137.44,140.35" fill="#392E1F"/><polygon points="139.87,138.76 124.29,122.86 138.27,111.76 150.27,129.29" fill="#8a4b2d"/><polygon points="152.41,127.34 140.83,110.39 156.92,100.81 165.65,122.35" fill="#8a4b2d"/><polygon points="167.98,120.65 159.11,99.16 177.35,95.62 180.97,114.99" fill="#C97567"/><polygon points="184.09,116 179.47,93.14 196.72,91.8 197.95,113.91" fill="#B65432"/><polygon points="200.79,114.01 201.15,91.3 217.96,92.84 214.93,114.32" fill="#392E1F"/><polygon points="217.68,115.21 222.26,94.13 238.52,99.71 230.77,120.41" fill="#211d16"/><polygon points="233.72,120.66 242.35,101.06 258.16,108.14 245.9,127.62" fill="#211d16"/><polygon points="248.49,128.85 261.63,110.99 274.69,122.06 259.55,137.54" fill="#211d16"/><polygon points="261.49,139.63 276.92,124.69 288.32,137.23 269.7,150.98" fill="#392E1F"/><polygon points="272.55,152.48 289.58,141.11 298.32,155.72 278.55,165.25" fill="#A8B4B8"/><polygon points="229.71,306.19 236.47,329.65 222.68,332.71 219.37,309.19" fill="#392E1F"/><polygon points="216.75,311.14 220.59,332.2 206.45,334.17 205.83,311.24" fill="#211d16"/><polygon points="202.95,312.01 204.21,333.47 189.89,333.41 192.12,311.03" fill="#A8B4B8"/><polygon points="189.14,311.78 186.8,333.73 174.49,332.57 178.58,309.01" fill="#8a4b2d"/><polygon points="175.95,307.55 170.94,332.33 156.99,328.28 165.03,306.51" fill="#8a4b2d"/><polygon points="162.59,304.67 155.51,326.76 143.47,321.38 152.37,301.07" fill="#392E1F"/><polygon points="149.63,300.04 139.95,319.44 127.14,313.68 140.53,294.09" fill="#A8B4B8"/><polygon points="137.66,293.18 124.73,312.54 114.95,304.22 128.64,287.03" fill="#211d16"/><polygon points="126.92,284.53 111.99,300.56 102.17,292.9 119.53,276.6" fill="#8a4b2d"/><polygon points="117.12,274.88 100.01,289.12 91.97,279.91 110.52,266.28" fill="#211d16"/><polygon points="109.64,263.36 89.77,276.5 81.83,266.41 102.73,254.97" fill="#211d16"/><polygon points="101.12,252.53 81.06,263.32 75.44,251.37 98.13,242.01" fill="#392E1F"/><polygon points="95.73,239.86 73.53,247.95 70.78,235.7 91.87,229.69" fill="#8a4b2d"/><polygon points="91.26,226.84 70.49,232.93 66.64,218.62 90.75,215.93" fill="#9DBBA6"/><polygon points="90.46,213.07 65.79,215.89 65.15,202.09 88.57,202.4" fill="#CDB878"/><polygon points="88.63,199.51 65.73,199.88 66.62,186.1 89.8,188.76" fill="#C97567"/><polygon points="88.75,185.72 67.39,183.14 70.03,169.35 92.02,175.31" fill="#211d16"/><polygon points="93.23,172.64 68.76,165.6 74.58,153.98 96.15,162.33" fill="#211d16"/><polygon points="96.46,159.36 73.26,151.26 80.83,139.8 100.55,149.33" fill="#CDB878"/><polygon points="102.64,147.16 82.16,135.06 89.14,123.96 108.45,138.11" fill="#8a4b2d"/><polygon points="109.71,135.48 90.06,121.97 97.36,111.38 116.26,126.9" fill="#B65432"/><polygon points="117.55,124.17 101.8,109.39 109.3,99.54 125.59,116.85" fill="#C97567"/><polygon points="127.21,114.27 113.65,96.9 123.13,90.65 136.18,108.06" fill="#211d16"/><polygon points="138.58,106.41 126.49,87.58 138.22,80.38 148.71,102.34" fill="#A8B4B8"/><polygon points="150.77,100.01 141.14,79.85 152.13,74.51 160.73,95.78" fill="#9DBBA6"/><polygon points="163.24,94.19 156.5,73.43 168.11,70.04 173.94,92.18" fill="#CDB878"/><polygon points="176.72,91.38 171.3,69.34 184.95,65.08 187.41,90.04" fill="#C97567"/><polygon points="190.31,90.11 188.9,65.18 200.97,65.75 201.03,88.61" fill="#211d16"/><polygon points="203.91,89.09 204.07,65.29 217.97,66.16 214.61,90.32" fill="#9DBBA6"/><polygon points="217.74,88.97 221.77,66.09 233.58,69.17 228.06,92.64" fill="#211d16"/><polygon points="230.88,93.28 237.97,69.53 249.35,74.21 241.47,95.81" fill="#9DBBA6"/><polygon points="243.61,98.22 253.54,77.38 264.91,81.28 253.51,102.52" fill="#9DBBA6"/><polygon points="255.92,104.14 268.42,84.27 278.97,90.1 265.22,109.65" fill="#211d16"/><polygon points="266.86,112.27 281.94,93.03 290.77,100.93 275.29,118.93" fill="#A8B4B8"/><polygon points="278.46,119.8 294.88,102.73 302.7,114.04 285.89,127.78" fill="#8a4b2d"/><polygon points="286.93,130.68 304.19,116.09 313.81,126.21 292.46,139.95" fill="#8a4b2d"/><polygon points="294.65,141.98 314.66,130.22 321.44,141.08 299.84,151.43" fill="#211d16"/><polygon points="300.92,154.11 321.57,144.66 326.44,156.62 306.16,163.69" fill="#392E1F"/><polygon points="306.88,166.52 329.53,160.2 330.97,173.18 308.17,177.35" fill="#211d16"/><polygon points="309.3,180.07 332.6,175.57 334.84,188.17 312.07,190.66" fill="#211d16"/><polygon points="310.02,193.7 335.22,192.61 333.56,204.99 310.4,204.42" fill="#211d16"/><polygon points="311.6,207.38 333.53,207.89 333.56,222.26 310.85,218.26" fill="#8a4b2d"/><polygon points="309.04,220.88 331.87,224.44 329.46,238.04 306.48,231.36" fill="#392E1F"/><polygon points="306.6,234.43 326.85,241.79 323.06,254.2 301.07,243.88" fill="#211d16"/><polygon points="301.6,247.29 321.24,257.19 316.35,269.03 295.74,256.46" fill="#8a4b2d"/><polygon points="294.24,258.93 314.31,272.5 306.99,281.39 287.74,267.54" fill="#8a4b2d"/><polygon points="287.2,270.81 304.22,284.59 295.85,295.51 278.59,277.62" fill="#C97567"/><polygon points="277.29,280.42 293.3,296.55 282.74,305 268.42,286.66" fill="#211d16"/><polygon points="267.09,289.66 279.91,308.19 270.35,314.63 258.31,296.15" fill="#8a4b2d"/><polygon points="255.45,297.04 266.55,316.68 255.2,321.7 245.97,302.39" fill="#CDB878"/><polygon points="242.62,301.95 251.76,323.66 239.16,327.7 232.54,305.65" fill="#211d16"/><polygon points="61.97,197.7 42.62,197.8 42.31,186.39 61.18,187.44" fill="#211d16"/><polygon points="63.28,184.65 42.37,182.6 44.47,169.93 64.19,174.52" fill="#211d16"/><polygon points="65.63,171.78 44.46,166.3 48.92,157.23 67.25,161.74" fill="#211d16"/><polygon points="66.84,158.48 49.82,152.04 53.65,141.49 72.23,149.58" fill="#8a4b2d"/><polygon points="72.28,146.39 54.02,138.73 59.16,128.43 76.05,136.88" fill="#392E1F"/><polygon points="77.92,134.47 60.36,125.44 66.74,115.76 83.76,126.11" fill="#211d16"/><polygon points="85.62,123.78 68.95,112.37 75.45,101.88 91.03,115.17" fill="#211d16"/><polygon points="93.62,113.44 78.09,99.47 85.79,92.13 99.98,105.58" fill="#211d16"/><polygon points="101.72,103.12 88.35,88.98 95.14,81.02 108.75,95.75" fill="#211d16"/><polygon points="110.71,93.42 98.73,78.7 107.69,72.87 119.86,88.63" fill="#211d16"/><polygon points="121.96,86.46 110.82,70.51 120.45,63.97 130.04,80.2" fill="#211d16"/><polygon points="133.36,80.01 122.43,62.02 133.19,57.65 142.04,74.73" fill="#8a4b2d"/><polygon points="144.97,73.99 135.51,55.09 147.6,50.69 154.3,70.06" fill="#211d16"/><polygon points="156.58,67.46 151.54,49.65 161.49,46.82 166.47,64.74" fill="#211d16"/><polygon points="169.82,65.89 165.65,44.46 177.01,42.95 179.49,62.22" fill="#211d16"/><polygon points="182.72,63.77 180.1,42.93 192.55,41.09 192.75,62.11" fill="#8a4b2d"/><polygon points="195.72,61.91 195.86,42.6 207.75,42.99 205.93,61.11" fill="#8a4b2d"/><polygon points="208.81,63.08 209.42,43.24 222.27,42.39 219.13,62.1" fill="#211d16"/><polygon points="221.77,64.59 225.24,43.96 237.85,45.64 231.96,65.36" fill="#8a4b2d"/><polygon points="234.94,65.77 239.66,46.58 250.23,50.25 244.62,68.97" fill="#9DBBA6"/><polygon points="247.62,69.47 252.94,51.71 264.7,55.18 256.68,74.24" fill="#C97567"/><polygon points="260.01,74.18 267.89,58.1 279.23,63.19 268.07,80.74" fill="#211d16"/><polygon points="271.65,80.53 280.31,64.79 289.88,70.72 279.04,87.83" fill="#211d16"/><polygon points="282.26,88.46 295.18,72.84 303.16,79.45 289.58,95.58" fill="#211d16"/><polygon points="292.82,96.41 306.35,81.98 314.41,90.75 299.25,104.42" fill="#8a4b2d"/><polygon points="302.43,105.53 316.36,91.85 323.96,100.78 307.8,114.35" fill="#8a4b2d"/><polygon points="309.86,116.52 326.38,105.31 333.18,112.85 315.04,125.26" fill="#211d16"/><polygon points="316.58,127.79 334.9,116.28 339.73,126.06 323.58,135.51" fill="#211d16"/><polygon points="324.58,138.37 342.16,130.18 347.09,139.16 328.54,147.8" fill="#211d16"/><polygon points="330.09,150.41 348.84,143.22 352.12,155.4 331.44,160.7" fill="#392E1F"/><polygon points="332.37,163.51 352.93,158.73 355.34,170.22 336.6,172.97" fill="#8a4b2d"/><polygon points="336.18,176.09 356.8,172.21 357.83,183.88 336.44,186.29" fill="#392E1F"/><polygon points="338.52,189.09 357.95,187.99 358.52,200.34 339.13,199.31" fill="#211d16"/><polygon points="337.49,202.29 359.21,202.96 356.94,214.46 336.63,212.36" fill="#392E1F"/><polygon points="337.76,215.47 357.97,217.33 354.74,227.91 336.06,225.52" fill="#9DBBA6"/><polygon points="335.73,228.51 354.09,232.63 351.76,244.03 333.05,238.35" fill="#211d16"/><polygon points="332.9,241.43 350.11,247.51 348.32,257.41 328.33,250.64" fill="#211d16"/><polygon points="327.75,253.62 346.55,262.23 340.63,272.43 323.59,262.94" fill="#8a4b2d"/><polygon points="321.47,265.2 339.69,275.24 333.38,285.37 317.34,274.59" fill="#8a4b2d"/><polygon points="315.45,276.94 331.59,286.36 325.44,296.47 309.68,285.37" fill="#9DBBA6"/><polygon points="307.3,287.31 322.38,299.58 315.3,308.88 300.64,295.01" fill="#8a4b2d"/><polygon points="298.72,297.32 313.21,311.54 304.83,320.06 290.66,303.58" fill="#CDB878"/><polygon points="289.29,306.57 301.28,322.04 292.58,328.4 281.18,312.81" fill="#CDB878"/><polygon points="278.79,314.63 289.6,330.09 278.54,336.12 269.45,318.93" fill="#211d16"/><polygon points="266.87,320.4 276.64,338.11 266.9,343.6 257.95,325.24" fill="#211d16"/><polygon points="255.53,327.15 264.62,345.39 252.12,349.01 246.24,331.48" fill="#CDB878"/><polygon points="242.88,330.89 249.45,350.66 238.7,354.28 233.25,334.17" fill="#C97567"/><polygon points="230.34,334.79 235.65,354.29 223.49,357.08 220.51,337.8" fill="#211d16"/><polygon points="217.37,336.95 219.14,357.99 208.72,356.89 207.22,337.32" fill="#211d16"/><polygon points="204.26,337.54 204.58,357.75 193.62,358.31 194.12,337.91" fill="#211d16"/><polygon points="191.19,336.95 189.82,357.42 178.07,355.87 181.14,335.94" fill="#C97567"/><polygon points="178.2,335.56 175.24,355.17 162.65,353.85 168.13,334.29" fill="#211d16"/><polygon points="164.86,334.99 159.62,352.7 148.2,348.73 155.58,330.44" fill="#211d16"/><polygon points="152.68,329.69 145.5,348.48 135.4,344.47 142.93,326.61" fill="#211d16"/><polygon points="140.13,325.52 131.54,343.93 121.9,337.64 131.15,320.63" fill="#8a4b2d"/><polygon points="128.38,319.42 117.76,335.22 108,329.65 120.24,313.19" fill="#C97567"/><polygon points="118.56,310.44 105.55,327.75 95.77,320.19 110.03,304.87" fill="#392E1F"/><polygon points="107.4,303.34 94.89,318.12 85.99,309.23 99.93,296.37" fill="#8a4b2d"/><polygon points="97.55,294.48 83.79,306.79 76.47,296.93 92.33,285.54" fill="#392E1F"/><polygon points="90.11,283.5 73.91,297.14 66.95,286.65 84.3,275.17" fill="#8a4b2d"/><polygon points="82.24,272.94 65.02,282.3 59.19,273.57 76.51,264.44" fill="#A8B4B8"/><polygon points="76.18,261.25 57.99,269.45 52.54,259.06 72.18,251.91" fill="#8a4b2d"/><polygon points="69.8,249.63 51.29,256.05 49.38,244.39 66.96,239.78" fill="#C97567"/><polygon points="67.38,236.56 46.89,243.28 43.91,231.13 64.27,226.86" fill="#211d16"/><polygon points="63.34,223.99 44.86,227.97 43.6,215.89 61.83,213.89" fill="#211d16"/><polygon points="61.09,210.94 43.08,211.95 41.83,200.28 60.98,200.69" fill="#211d16"/><circle cx="200" cy="200" r="168" fill="none" stroke="#211d16" stroke-width="3"/><circle cx="200" cy="200" r="31" fill="#F2C7B6"/><circle cx="200" cy="200" r="24" fill="#8a4b2d" stroke="#392E1F" stroke-width="1.5"/></g></g><line x1="440" y1="10" x2="440" y2="430" stroke="#211d16" stroke-width="1" stroke-dasharray="6,6"/><text x="200" y="440" text-anchor="middle" font-family="monospace" font-size="16" fill="#211d16">TSR-5219-d896 - keep this half</text><text x="660" y="440" text-anchor="middle" font-family="monospace" font-size="16" fill="#211d16">TSR-5219-d896 - travels with the letter</text><text x="440" y="475" text-anchor="middle" font-family="serif" font-size="14" fill="#211d16">Cut along the dashed line. The broken edge is the signature; the halves must meet.</text><g transform="translate(800,410) scale(0.18)"><circle cx="200" cy="200" r="166" fill="#FBF6EC"/><polygon points="327.58,206.3 302.87,239.65 271.77,257.72 252.42,277.8 228.55,296.54 195.87,324.99 151.68,329.45 101.89,319.06 67.77,280.94 72.65,228.5 93.68,187.6 131.5,166.14 154.3,150.46 169.68,124.17 197.1,102.45 237.54,80.58 286.95,81.93 321.41,116.24 347.32,157.68" fill="#F2C7B6" fill-opacity="0.54"/><polygon points="293.52,206.43 275.72,230.44 253.33,243.45 239.4,257.91 222.21,271.4 198.68,291.88 166.87,295.09 131.02,287.61 106.45,260.17 109.97,222.41 125.11,192.96 152.34,177.51 168.75,166.22 179.83,147.29 199.57,131.65 228.69,115.91 264.26,116.88 289.07,141.58 307.73,171.42" fill="#F2C7B6" fill-opacity="0.3"/><polygon points="359.77,210.46 336.03,266.43 296.95,306.68 239.97,301.74 200.59,303 162.63,293.05 122.5,274.26 84.54,237.19 67.86,180.18 98.02,128.88 155.66,115.81 201.45,126.11 239.1,121.87 273.56,140.22 318.44,162.32" fill="#F3E9D0" fill-opacity="0.5"/><polygon points="317.97,210.67 300.87,250.97 272.74,279.95 231.71,276.39 203.36,277.3 176.03,270.14 147.13,256.61 119.8,229.92 107.79,188.87 129.51,151.93 171.01,142.52 203.98,149.94 231.08,146.89 255.9,160.1 288.21,176.01" fill="#F3E9D0" fill-opacity="0.3"/><polygon points="345.82,204.17 318.02,253.8 268.75,273.23 242.72,315.43 192.03,342.53 154.65,294.11 140.08,252.48 81.12,230.84 67.75,174.67 122.18,142.86 163.27,129.17 192.08,66.36 248.15,76.19 264.61,139.72 295.52,164.57" fill="#F5E0D5" fill-opacity="0.59"/><polygon points="306.8,204.12 286.78,239.86 251.31,253.85 232.56,284.23 196.07,303.74 169.15,268.88 158.66,238.91 116.21,223.33 106.59,182.88 145.78,159.98 175.36,150.12 196.1,104.9 236.47,111.98 248.33,157.72 270.58,175.61" fill="#F5E0D5" fill-opacity="0.3"/><polygon points="303.8,200.02 332.76,256.19 304.92,306.82 244.77,314.5 197.94,309.85 160.42,296.12 110.7,302.07 58.16,280.32 45.76,226.57 76.8,179.28 105.73,149.23 116.38,105.49 148.77,62.99 201.83,48.18 247.24,80.59 272.1,123.14 275.82,165.91" fill="#E4E9EA" fill-opacity="0.61"/><polygon points="271.51,200.13 292.36,240.58 272.31,277.03 229,282.56 195.29,279.21 168.27,269.33 132.47,273.61 94.65,257.95 85.72,219.25 108.07,185.2 128.9,163.57 136.56,132.07 159.88,101.47 198.09,90.81 230.78,114.14 248.68,144.78 251.36,175.57" fill="#E4E9EA" fill-opacity="0.3"/><polygon points="207.31,241.87 211.1,265.17 194,264.43 195.78,242.75" fill="#211d16"/><polygon points="193.53,240.61 189.94,265.14 171.94,260.61 182.64,237.94" fill="#211d16"/><polygon points="179.9,237.82 169.36,258.64 155.12,247.54 171.41,230.09" fill="#CDB878"/><polygon points="170.14,227.9 151.68,245.33 142.24,230.33 162.69,219.44" fill="#211d16"/><polygon points="162.07,216.98 139.88,226.81 134.07,209.61 159.33,206.13" fill="#211d16"/><polygon points="158.18,203.78 133.68,205.82 134.67,187.94 158.91,192.48" fill="#B65432"/><polygon points="159.15,189.98 136.4,184.6 143.39,168.52 163.42,179.46" fill="#8a4b2d"/><polygon points="165.58,177.88 143.52,164.25 156.14,150.76 172.13,168.76" fill="#B65432"/><polygon points="173.9,166.97 159.09,148.35 174.58,140.6 183.42,160.54" fill="#211d16"/><polygon points="186.11,160.51 178.39,137.78 195.65,134 197.14,157.3" fill="#392E1F"/><polygon points="199.7,159 199.38,134.85 217.27,135.7 210.98,159.32" fill="#CDB878"/><polygon points="213.53,159.6 220.22,138.6 236.72,145.04 223.21,165.67" fill="#211d16"/><polygon points="225.45,166.8 240.51,147.55 252.55,160.13 233.51,174.76" fill="#211d16"/><polygon points="235.45,176.46 254.91,163.82 262.69,179.26 239.02,187.29" fill="#211d16"/><polygon points="239.99,189.56 263.5,183.38 265.29,201.49 241.41,200.65" fill="#211d16"/><polygon points="240.93,203.09 265.2,204.48 262.01,222.34 238.32,213.83" fill="#8a4b2d"/><polygon points="237.45,216.1 260.42,225.9 250.54,240.18 233.16,226.65" fill="#211d16"/><polygon points="231.16,228.26 248.95,244.04 234.35,255.04 222.85,236.2" fill="#211d16"/><polygon points="219.78,235.92 231.79,258.31 215.46,263.66 209.54,240.32" fill="#8a4b2d"/><polygon points="268.9,199.96 282.78,199.9 281.47,212.48 267.64,210.06" fill="#211d16"/><polygon points="267.62,212.99 280.78,215.41 278.19,227.9 266.1,223.23" fill="#211d16"/><polygon points="263.96,225.56 276.61,230.09 270.69,241.32 260.26,235.17" fill="#211d16"/><polygon points="258.15,237.32 268.37,244.25 262.04,254.48 251.51,245.07" fill="#8a4b2d"/><polygon points="250.82,248.39 259.12,256.96 250.97,264.63 242.46,254.53" fill="#B65432"/><polygon points="239.91,255.97 248.54,267.67 237.08,272.97 231.23,261.31" fill="#211d16"/><polygon points="228.91,263.19 233.81,274.77 222.94,280.4 219.15,266.38" fill="#211d16"/><polygon points="216.32,267.08 219.67,279.12 207.57,282.18 206.22,268.66" fill="#211d16"/><polygon points="203.36,269.54 203.94,282.78 192.35,282.4 193.11,268.64" fill="#B65432"/><polygon points="190.35,267.39 188.89,280.93 176.54,279.83 180.34,265.79" fill="#CDB878"/><polygon points="177.01,266.55 172.32,278.48 160.96,273.73 168.2,260.96" fill="#211d16"/><polygon points="165.9,259.15 158.07,271.56 149.41,264.21 156.98,254.17" fill="#211d16"/><polygon points="154.44,252.65 145.91,263.04 138.26,253.5 147.67,244.9" fill="#B65432"/><polygon points="146.38,242.23 134.98,251.68 127.18,241.16 139.49,234.55" fill="#211d16"/><polygon points="138.11,231.95 125.93,237.74 121.72,226.74 134.58,222.29" fill="#211d16"/><polygon points="132.67,219.82 120.43,223.87 119.3,211.36 131.68,209.49" fill="#8a4b2d"/><polygon points="130.44,206.69 118.43,207.26 117.89,195.55 129.82,196.32" fill="#8a4b2d"/><polygon points="131.43,193.5 117.32,191.81 119.81,180.22 132.12,183.19" fill="#211d16"/><polygon points="132.71,180.29 120.53,176.6 124.95,165.29 137.28,170.99" fill="#8a4b2d"/><polygon points="139.2,168.7 126.82,161.79 132.55,151.73 143.88,159.63" fill="#C97567"/><polygon points="145.8,157.43 134.95,149.09 142.81,140.15 152.35,149.54" fill="#C97567"/><polygon points="153.85,146.81 146.7,137.93 155.68,130.34 162.5,141.03" fill="#211d16"/><polygon points="165.29,139.97 159.26,128.61 169.4,122.23 174.58,135.62" fill="#211d16"/><polygon points="177.1,133.96 173.22,121.68 184.29,119.15 187.29,132.32" fill="#392E1F"/><polygon points="190.01,130.84 187.71,117.39 199.89,116.67 200.33,130.8" fill="#392E1F"/><polygon points="203.3,129.79 203.48,118.25 215.32,119.45 213.54,131.53" fill="#A8B4B8"/><polygon points="216.48,131.87 219.83,120 230.99,122.52 226.44,134.85" fill="#8a4b2d"/><polygon points="228.49,137.51 233.6,124.93 244.66,130.17 237.45,142.34" fill="#211d16"/><polygon points="239.75,144.1 248.19,132.48 256.99,140.19 248.51,149.61" fill="#9DBBA6"/><polygon points="250.35,151.93 258.99,143.75 267.55,152.41 257.08,159.77" fill="#211d16"/><polygon points="258.89,162.1 269.62,154.84 274.94,165.86 263.17,171.52" fill="#211d16"/><polygon points="263.66,174.47 275.93,169.89 280.4,180.87 266.39,184.23" fill="#211d16"/><polygon points="267.57,186.93 281.6,184.19 282.07,196.96 269.49,197.02" fill="#211d16"/><polygon points="278.82,168.2 299.93,159.26 304.33,177.33 283.96,181.21" fill="#211d16"/><polygon points="284.92,183.92 306.33,179.36 306.68,198.2 286.69,197.93" fill="#211d16"/><polygon points="285.08,200.78 307.36,201.63 306.4,217.86 284.51,214.73" fill="#211d16"/><polygon points="285.09,217.74 305.86,221.34 300.09,238.33 280.88,231.27" fill="#211d16"/><polygon points="278.28,233.27 300.21,241.86 290.13,257.15 273.57,246.66" fill="#C97567"/><polygon points="271.21,248.54 289.89,260.56 277.42,273.86 262.84,259.91" fill="#B65432"/><polygon points="259.55,260.65 275.45,276.98 263.21,288.68 249.76,270.76" fill="#8a4b2d"/><polygon points="247.27,272.17 259.11,290.69 244.64,298.98 234.8,278.66" fill="#8a4b2d"/><polygon points="232.35,280.18 239.72,299.27 224.33,305.41 219.01,284.92" fill="#211d16"/><polygon points="215.99,284.41 219.55,306.62 202.06,307.77 202.02,284.91" fill="#C97567"/><polygon points="199.22,285.33 198.54,308.11 182.11,307.11 185.37,283.96" fill="#211d16"/><polygon points="182.53,283.78 177.82,305.76 161.23,300.74 168.89,280.48" fill="#211d16"/><polygon points="166.01,279.97 158.85,298.66 142.32,289.74 154.44,271.84" fill="#211d16"/><polygon points="151.35,271.38 140.39,288.74 125.54,278.76 140.22,262.7" fill="#9DBBA6"/><polygon points="138.54,260.34 122.95,275.07 110.84,261.85 128.79,250.08" fill="#211d16"/><polygon points="127.26,247.65 109.25,259.62 101.02,243.18 121.24,234.84" fill="#B65432"/><polygon points="119.43,232.51 100.39,240.65 95.06,223.82 116.93,218.59" fill="#211d16"/><polygon points="116.42,215.83 94.65,220.52 91.58,202.05 113.04,202.07" fill="#211d16"/><polygon points="113.89,199.21 91.63,198.48 94.01,180.73 114.2,185.05" fill="#8a4b2d"/><polygon points="115.03,182.29 95.03,178.15 99.61,160.5 118.89,168.65" fill="#8a4b2d"/><polygon points="120.16,166.07 101.33,158.47 108.36,141.7 127.54,154.04" fill="#8a4b2d"/><polygon points="129.73,152.1 112.01,139.71 122.22,126.09 137.44,140.35" fill="#392E1F"/><polygon points="139.87,138.76 124.29,122.86 138.27,111.76 150.27,129.29" fill="#8a4b2d"/><polygon points="152.41,127.34 140.83,110.39 156.92,100.81 165.65,122.35" fill="#8a4b2d"/><polygon points="167.98,120.65 159.11,99.16 177.35,95.62 180.97,114.99" fill="#C97567"/><polygon points="184.09,116 179.47,93.14 196.72,91.8 197.95,113.91" fill="#B65432"/><polygon points="200.79,114.01 201.15,91.3 217.96,92.84 214.93,114.32" fill="#392E1F"/><polygon points="217.68,115.21 222.26,94.13 238.52,99.71 230.77,120.41" fill="#211d16"/><polygon points="233.72,120.66 242.35,101.06 258.16,108.14 245.9,127.62" fill="#211d16"/><polygon points="248.49,128.85 261.63,110.99 274.69,122.06 259.55,137.54" fill="#211d16"/><polygon points="261.49,139.63 276.92,124.69 288.32,137.23 269.7,150.98" fill="#392E1F"/><polygon points="272.55,152.48 289.58,141.11 298.32,155.72 278.55,165.25" fill="#A8B4B8"/><polygon points="229.71,306.19 236.47,329.65 222.68,332.71 219.37,309.19" fill="#392E1F"/><polygon points="216.75,311.14 220.59,332.2 206.45,334.17 205.83,311.24" fill="#211d16"/><polygon points="202.95,312.01 204.21,333.47 189.89,333.41 192.12,311.03" fill="#A8B4B8"/><polygon points="189.14,311.78 186.8,333.73 174.49,332.57 178.58,309.01" fill="#8a4b2d"/><polygon points="175.95,307.55 170.94,332.33 156.99,328.28 165.03,306.51" fill="#8a4b2d"/><polygon points="162.59,304.67 155.51,326.76 143.47,321.38 152.37,301.07" fill="#392E1F"/><polygon points="149.63,300.04 139.95,319.44 127.14,313.68 140.53,294.09" fill="#A8B4B8"/><polygon points="137.66,293.18 124.73,312.54 114.95,304.22 128.64,287.03" fill="#211d16"/><polygon points="126.92,284.53 111.99,300.56 102.17,292.9 119.53,276.6" fill="#8a4b2d"/><polygon points="117.12,274.88 100.01,289.12 91.97,279.91 110.52,266.28" fill="#211d16"/><polygon points="109.64,263.36 89.77,276.5 81.83,266.41 102.73,254.97" fill="#211d16"/><polygon points="101.12,252.53 81.06,263.32 75.44,251.37 98.13,242.01" fill="#392E1F"/><polygon points="95.73,239.86 73.53,247.95 70.78,235.7 91.87,229.69" fill="#8a4b2d"/><polygon points="91.26,226.84 70.49,232.93 66.64,218.62 90.75,215.93" fill="#9DBBA6"/><polygon points="90.46,213.07 65.79,215.89 65.15,202.09 88.57,202.4" fill="#CDB878"/><polygon points="88.63,199.51 65.73,199.88 66.62,186.1 89.8,188.76" fill="#C97567"/><polygon points="88.75,185.72 67.39,183.14 70.03,169.35 92.02,175.31" fill="#211d16"/><polygon points="93.23,172.64 68.76,165.6 74.58,153.98 96.15,162.33" fill="#211d16"/><polygon points="96.46,159.36 73.26,151.26 80.83,139.8 100.55,149.33" fill="#CDB878"/><polygon points="102.64,147.16 82.16,135.06 89.14,123.96 108.45,138.11" fill="#8a4b2d"/><polygon points="109.71,135.48 90.06,121.97 97.36,111.38 116.26,126.9" fill="#B65432"/><polygon points="117.55,124.17 101.8,109.39 109.3,99.54 125.59,116.85" fill="#C97567"/><polygon points="127.21,114.27 113.65,96.9 123.13,90.65 136.18,108.06" fill="#211d16"/><polygon points="138.58,106.41 126.49,87.58 138.22,80.38 148.71,102.34" fill="#A8B4B8"/><polygon points="150.77,100.01 141.14,79.85 152.13,74.51 160.73,95.78" fill="#9DBBA6"/><polygon points="163.24,94.19 156.5,73.43 168.11,70.04 173.94,92.18" fill="#CDB878"/><polygon points="176.72,91.38 171.3,69.34 184.95,65.08 187.41,90.04" fill="#C97567"/><polygon points="190.31,90.11 188.9,65.18 200.97,65.75 201.03,88.61" fill="#211d16"/><polygon points="203.91,89.09 204.07,65.29 217.97,66.16 214.61,90.32" fill="#9DBBA6"/><polygon points="217.74,88.97 221.77,66.09 233.58,69.17 228.06,92.64" fill="#211d16"/><polygon points="230.88,93.28 237.97,69.53 249.35,74.21 241.47,95.81" fill="#9DBBA6"/><polygon points="243.61,98.22 253.54,77.38 264.91,81.28 253.51,102.52" fill="#9DBBA6"/><polygon points="255.92,104.14 268.42,84.27 278.97,90.1 265.22,109.65" fill="#211d16"/><polygon points="266.86,112.27 281.94,93.03 290.77,100.93 275.29,118.93" fill="#A8B4B8"/><polygon points="278.46,119.8 294.88,102.73 302.7,114.04 285.89,127.78" fill="#8a4b2d"/><polygon points="286.93,130.68 304.19,116.09 313.81,126.21 292.46,139.95" fill="#8a4b2d"/><polygon points="294.65,141.98 314.66,130.22 321.44,141.08 299.84,151.43" fill="#211d16"/><polygon points="300.92,154.11 321.57,144.66 326.44,156.62 306.16,163.69" fill="#392E1F"/><polygon points="306.88,166.52 329.53,160.2 330.97,173.18 308.17,177.35" fill="#211d16"/><polygon points="309.3,180.07 332.6,175.57 334.84,188.17 312.07,190.66" fill="#211d16"/><polygon points="310.02,193.7 335.22,192.61 333.56,204.99 310.4,204.42" fill="#211d16"/><polygon points="311.6,207.38 333.53,207.89 333.56,222.26 310.85,218.26" fill="#8a4b2d"/><polygon points="309.04,220.88 331.87,224.44 329.46,238.04 306.48,231.36" fill="#392E1F"/><polygon points="306.6,234.43 326.85,241.79 323.06,254.2 301.07,243.88" fill="#211d16"/><polygon points="301.6,247.29 321.24,257.19 316.35,269.03 295.74,256.46" fill="#8a4b2d"/><polygon points="294.24,258.93 314.31,272.5 306.99,281.39 287.74,267.54" fill="#8a4b2d"/><polygon points="287.2,270.81 304.22,284.59 295.85,295.51 278.59,277.62" fill="#C97567"/><polygon points="277.29,280.42 293.3,296.55 282.74,305 268.42,286.66" fill="#211d16"/><polygon points="267.09,289.66 279.91,308.19 270.35,314.63 258.31,296.15" fill="#8a4b2d"/><polygon points="255.45,297.04 266.55,316.68 255.2,321.7 245.97,302.39" fill="#CDB878"/><polygon points="242.62,301.95 251.76,323.66 239.16,327.7 232.54,305.65" fill="#211d16"/><polygon points="61.97,197.7 42.62,197.8 42.31,186.39 61.18,187.44" fill="#211d16"/><polygon points="63.28,184.65 42.37,182.6 44.47,169.93 64.19,174.52" fill="#211d16"/><polygon points="65.63,171.78 44.46,166.3 48.92,157.23 67.25,161.74" fill="#211d16"/><polygon points="66.84,158.48 49.82,152.04 53.65,141.49 72.23,149.58" fill="#8a4b2d"/><polygon points="72.28,146.39 54.02,138.73 59.16,128.43 76.05,136.88" fill="#392E1F"/><polygon points="77.92,134.47 60.36,125.44 66.74,115.76 83.76,126.11" fill="#211d16"/><polygon points="85.62,123.78 68.95,112.37 75.45,101.88 91.03,115.17" fill="#211d16"/><polygon points="93.62,113.44 78.09,99.47 85.79,92.13 99.98,105.58" fill="#211d16"/><polygon points="101.72,103.12 88.35,88.98 95.14,81.02 108.75,95.75" fill="#211d16"/><polygon points="110.71,93.42 98.73,78.7 107.69,72.87 119.86,88.63" fill="#211d16"/><polygon points="121.96,86.46 110.82,70.51 120.45,63.97 130.04,80.2" fill="#211d16"/><polygon points="133.36,80.01 122.43,62.02 133.19,57.65 142.04,74.73" fill="#8a4b2d"/><polygon points="144.97,73.99 135.51,55.09 147.6,50.69 154.3,70.06" fill="#211d16"/><polygon points="156.58,67.46 151.54,49.65 161.49,46.82 166.47,64.74" fill="#211d16"/><polygon points="169.82,65.89 165.65,44.46 177.01,42.95 179.49,62.22" fill="#211d16"/><polygon points="182.72,63.77 180.1,42.93 192.55,41.09 192.75,62.11" fill="#8a4b2d"/><polygon points="195.72,61.91 195.86,42.6 207.75,42.99 205.93,61.11" fill="#8a4b2d"/><polygon points="208.81,63.08 209.42,43.24 222.27,42.39 219.13,62.1" fill="#211d16"/><polygon points="221.77,64.59 225.24,43.96 237.85,45.64 231.96,65.36" fill="#8a4b2d"/><polygon points="234.94,65.77 239.66,46.58 250.23,50.25 244.62,68.97" fill="#9DBBA6"/><polygon points="247.62,69.47 252.94,51.71 264.7,55.18 256.68,74.24" fill="#C97567"/><polygon points="260.01,74.18 267.89,58.1 279.23,63.19 268.07,80.74" fill="#211d16"/><polygon points="271.65,80.53 280.31,64.79 289.88,70.72 279.04,87.83" fill="#211d16"/><polygon points="282.26,88.46 295.18,72.84 303.16,79.45 289.58,95.58" fill="#211d16"/><polygon points="292.82,96.41 306.35,81.98 314.41,90.75 299.25,104.42" fill="#8a4b2d"/><polygon points="302.43,105.53 316.36,91.85 323.96,100.78 307.8,114.35" fill="#8a4b2d"/><polygon points="309.86,116.52 326.38,105.31 333.18,112.85 315.04,125.26" fill="#211d16"/><polygon points="316.58,127.79 334.9,116.28 339.73,126.06 323.58,135.51" fill="#211d16"/><polygon points="324.58,138.37 342.16,130.18 347.09,139.16 328.54,147.8" fill="#211d16"/><polygon points="330.09,150.41 348.84,143.22 352.12,155.4 331.44,160.7" fill="#392E1F"/><polygon points="332.37,163.51 352.93,158.73 355.34,170.22 336.6,172.97" fill="#8a4b2d"/><polygon points="336.18,176.09 356.8,172.21 357.83,183.88 336.44,186.29" fill="#392E1F"/><polygon points="338.52,189.09 357.95,187.99 358.52,200.34 339.13,199.31" fill="#211d16"/><polygon points="337.49,202.29 359.21,202.96 356.94,214.46 336.63,212.36" fill="#392E1F"/><polygon points="337.76,215.47 357.97,217.33 354.74,227.91 336.06,225.52" fill="#9DBBA6"/><polygon points="335.73,228.51 354.09,232.63 351.76,244.03 333.05,238.35" fill="#211d16"/><polygon points="332.9,241.43 350.11,247.51 348.32,257.41 328.33,250.64" fill="#211d16"/><polygon points="327.75,253.62 346.55,262.23 340.63,272.43 323.59,262.94" fill="#8a4b2d"/><polygon points="321.47,265.2 339.69,275.24 333.38,285.37 317.34,274.59" fill="#8a4b2d"/><polygon points="315.45,276.94 331.59,286.36 325.44,296.47 309.68,285.37" fill="#9DBBA6"/><polygon points="307.3,287.31 322.38,299.58 315.3,308.88 300.64,295.01" fill="#8a4b2d"/><polygon points="298.72,297.32 313.21,311.54 304.83,320.06 290.66,303.58" fill="#CDB878"/><polygon points="289.29,306.57 301.28,322.04 292.58,328.4 281.18,312.81" fill="#CDB878"/><polygon points="278.79,314.63 289.6,330.09 278.54,336.12 269.45,318.93" fill="#211d16"/><polygon points="266.87,320.4 276.64,338.11 266.9,343.6 257.95,325.24" fill="#211d16"/><polygon points="255.53,327.15 264.62,345.39 252.12,349.01 246.24,331.48" fill="#CDB878"/><polygon points="242.88,330.89 249.45,350.66 238.7,354.28 233.25,334.17" fill="#C97567"/><polygon points="230.34,334.79 235.65,354.29 223.49,357.08 220.51,337.8" fill="#211d16"/><polygon points="217.37,336.95 219.14,357.99 208.72,356.89 207.22,337.32" fill="#211d16"/><polygon points="204.26,337.54 204.58,357.75 193.62,358.31 194.12,337.91" fill="#211d16"/><polygon points="191.19,336.95 189.82,357.42 178.07,355.87 181.14,335.94" fill="#C97567"/><polygon points="178.2,335.56 175.24,355.17 162.65,353.85 168.13,334.29" fill="#211d16"/><polygon points="164.86,334.99 159.62,352.7 148.2,348.73 155.58,330.44" fill="#211d16"/><polygon points="152.68,329.69 145.5,348.48 135.4,344.47 142.93,326.61" fill="#211d16"/><polygon points="140.13,325.52 131.54,343.93 121.9,337.64 131.15,320.63" fill="#8a4b2d"/><polygon points="128.38,319.42 117.76,335.22 108,329.65 120.24,313.19" fill="#C97567"/><polygon points="118.56,310.44 105.55,327.75 95.77,320.19 110.03,304.87" fill="#392E1F"/><polygon points="107.4,303.34 94.89,318.12 85.99,309.23 99.93,296.37" fill="#8a4b2d"/><polygon points="97.55,294.48 83.79,306.79 76.47,296.93 92.33,285.54" fill="#392E1F"/><polygon points="90.11,283.5 73.91,297.14 66.95,286.65 84.3,275.17" fill="#8a4b2d"/><polygon points="82.24,272.94 65.02,282.3 59.19,273.57 76.51,264.44" fill="#A8B4B8"/><polygon points="76.18,261.25 57.99,269.45 52.54,259.06 72.18,251.91" fill="#8a4b2d"/><polygon points="69.8,249.63 51.29,256.05 49.38,244.39 66.96,239.78" fill="#C97567"/><polygon points="67.38,236.56 46.89,243.28 43.91,231.13 64.27,226.86" fill="#211d16"/><polygon points="63.34,223.99 44.86,227.97 43.6,215.89 61.83,213.89" fill="#211d16"/><polygon points="61.09,210.94 43.08,211.95 41.83,200.28 60.98,200.69" fill="#211d16"/><circle cx="200" cy="200" r="168" fill="none" stroke="#211d16" stroke-width="3"/><circle cx="200" cy="200" r="31" fill="#F2C7B6"/><circle cx="200" cy="200" r="24" fill="#8a4b2d" stroke="#392E1F" stroke-width="1.5"/><polyline points="199.33,20 202.8,80 203.34,140 218.14,200 220.06,222 194.06,232 216.06,239 189.98,260 178.94,282 204.94,292 182.94,299 199.89,320 207.73,380" fill="none" stroke="#FBF6EC" stroke-width="4"/></g></svg>