<svg xmlns="http://www.w3.org/2000/svg" viewBox="0 0 880 500" width="880" height="500"><g transform="translate(10,20) scale(0.95)"><defs><clipPath id="cut-left"><polygon points="0,20 189.38,20 209.96,80 186.67,140 214.68,162 188.68,172 210.68,179 210.69,200 191.16,260 182.8,282 208.8,292 186.8,299 206.44,320 195.09,380 0,380"/></clipPath></defs><g clip-path="url(#cut-left)"><circle cx="200" cy="200" r="166" fill="#FBF6EC"/><polygon points="337.88,198.18 315.14,251.6 260.56,268.85 221.48,273.89 185.06,282 138.09,281.07 90.41,252.97 74.86,198.18 100.62,148.3 140.5,118.3 184.24,110.72 223.34,114.28 274.84,109.59 322.7,141.11" fill="#F3E9D0" fill-opacity="0.5"/><polygon points="300.67,197.67 284.3,236.13 245,248.55 216.86,252.18 190.64,258.02 156.82,257.35 122.49,237.12 111.29,197.67 129.84,161.76 158.55,140.16 190.05,134.7 218.2,137.26 255.28,133.89 289.74,156.58" fill="#F3E9D0" fill-opacity="0.3"/><polygon points="332.93,203.36 306.25,239.79 280.83,266.01 258.44,293.91 229.04,333.1 181.23,344.74 126.91,340.62 81.6,307.88 74.02,251.46 88,203.36 99.24,164.45 134.24,143.02 152.64,110.67 185.52,86.3 231.6,59.11 280.9,73.9 328.91,100.24 343.86,153.25" fill="#F2C7B6" fill-opacity="0.67"/><polygon points="297.52,203.59 278.31,229.82 260,248.7 243.88,268.78 222.72,297 188.29,305.38 149.18,302.42 116.56,278.84 111.1,238.22 121.17,203.59 129.26,175.57 154.46,160.14 167.71,136.85 191.38,119.31 224.56,99.73 260.05,110.38 294.62,129.34 305.39,167.51" fill="#F2C7B6" fill-opacity="0.3"/><polygon points="314.98,205.97 332.56,256.82 311.7,306.6 260.84,325.52 210.9,309.43 171.75,309.87 130.91,299.19 75.53,283.85 50.53,234.16 82.56,183.77 113.15,151.38 133.91,116.71 163.38,72.63 214.87,59.72 266.36,75.33 283.99,130.6 293.47,170.27" fill="#DFEDE3" fill-opacity="0.66"/><polygon points="282.97,205.81 295.63,242.42 280.61,278.26 243.99,291.89 208.04,280.3 179.85,280.62 150.44,272.93 110.57,261.88 92.57,226.11 115.63,189.83 137.66,166.51 152.6,141.54 173.82,109.81 210.89,100.51 247.97,111.75 260.66,151.54 267.49,180.11" fill="#DFEDE3" fill-opacity="0.3"/><polygon points="241.95,192.26 263.37,188.34 265.45,206.12 241.29,203.65" fill="#211d16"/><polygon points="242.21,206.3 264.68,209.25 260.16,226.72 238.21,217.01" fill="#211d16"/><polygon points="238.02,219.74 258.14,230.04 246.75,243.33 231.06,228.91" fill="#392E1F"/><polygon points="229.13,230.58 244.62,247.27 230.75,257.46 220.09,237.63" fill="#C97567"/><polygon points="217.51,238.12 227.23,259.33 210.9,264.79 206.62,241.1" fill="#9DBBA6"/><polygon points="204.12,241.11 206.47,265.11 188.54,264.53 192.7,242.3" fill="#211d16"/><polygon points="190.2,241.71 184.81,262.82 169.36,256.04 179.92,236.62" fill="#A8B4B8"/><polygon points="177.88,235.16 165.47,255.8 153.16,243.24 169.76,227.53" fill="#211d16"/><polygon points="167.67,226.07 150.14,240.05 141.02,225.23 161.75,216.52" fill="#A8B4B8"/><polygon points="159.71,214.61 138.21,222.89 135.43,205.29 158.12,203.24" fill="#211d16"/><polygon points="159.02,200.7 134.59,200.91 136.71,183.24 160.5,189.76" fill="#A8B4B8"/><polygon points="160.08,187.06 137.64,179.69 146.31,164.47 165.11,176.93" fill="#8a4b2d"/><polygon points="167.48,175.57 147.39,160.53 160.66,149 174.31,166.61" fill="#211d16"/><polygon points="176.91,165.95 163.36,145.58 178.96,137.61 186.94,161.24" fill="#211d16"/><polygon points="189.01,159.52 182.24,136.43 199.97,134.02 200.23,157.79" fill="#B65432"/><polygon points="202.73,158.46 204.33,134.23 221.47,138.71 213.59,161.11" fill="#211d16"/><polygon points="216.5,160.56 224.9,139.4 239.89,148.7 225.83,167.19" fill="#A8B4B8"/><polygon points="228.56,167.89 243.23,150.87 253.34,165.03 234.26,177.89" fill="#392E1F"/><polygon points="236.75,179.29 256.36,168.75 264,184.13 240.93,189.88" fill="#CDB878"/><polygon points="264.3,225 294.81,236.46 285.9,254.42 258.7,236.59" fill="#A8B4B8"/><polygon points="256.26,238.09 283.27,256.1 271.79,271.39 248.41,248.06" fill="#211d16"/><polygon points="246.44,249.73 269.54,274.15 254.43,284.53 236.45,257.54" fill="#C97567"/><polygon points="234.63,259.54 250.01,287.19 233.11,295.67 223.03,265.07" fill="#211d16"/><polygon points="220.14,264.55 230.52,297.01 211.51,300.37 208.05,269.18" fill="#9DBBA6"/><polygon points="205.41,269.23 207.16,299.53 189.04,300.76 192.66,267.3" fill="#211d16"/><polygon points="190.09,267.2 184.73,299.87 166.26,296.18 177.9,263.9" fill="#211d16"/><polygon points="175.55,262.9 164.06,294.43 145.85,285.71 164.13,257.55" fill="#211d16"/><polygon points="161.22,257.27 143.94,282.36 129.42,272 151.27,249.08" fill="#211d16"/><polygon points="149.49,247.17 126.55,268.26 115.47,253.91 142.23,236.59" fill="#211d16"/><polygon points="140.13,234.83 113.22,250.9 104.76,234.3 135.51,222.83" fill="#211d16"/><polygon points="133.8,220.65 104.29,229.48 98.95,211.07 130.85,208.05" fill="#B65432"/><polygon points="130.79,205.41 98.48,207.27 100.38,188.98 130.93,192.47" fill="#8a4b2d"/><polygon points="131.56,189.91 100.14,185.49 103.85,166.14 134.29,177.27" fill="#211d16"/><polygon points="135.8,175.04 106.51,163.55 114.99,146.76 142.25,164" fill="#211d16"/><polygon points="143.82,161.96 117,144.16 129.44,129.58 151.16,151.51" fill="#C97567"/><polygon points="153.48,150.19 132.28,126.79 146.51,115.43 162.76,141.21" fill="#9DBBA6"/><polygon points="165.67,140.98 149.05,112.49 166.41,104.38 177.41,136.18" fill="#211d16"/><polygon points="179.5,134.3 169.54,104.52 188.87,99.97 192.15,132.56" fill="#C97567"/><polygon points="194.72,132.5 192.4,99.05 211.23,98.73 207.51,131.08" fill="#8a4b2d"/><polygon points="209.87,133.02 214.6,101.24 232.23,104.62 222.44,135.13" fill="#211d16"/><polygon points="224.87,136.02 237.11,105.21 252.84,115.11 235.89,142.42" fill="#211d16"/><polygon points="238.28,143.46 256.03,117.17 270.32,128.86 248.89,150.76" fill="#8a4b2d"/><polygon points="250.86,152.5 272.81,131 284.84,145.53 258.38,163.02" fill="#8a4b2d"/><polygon points="259.2,165.57 287.67,149.79 295.18,166.36 264.88,177.03" fill="#392E1F"/><polygon points="266.39,179.29 296.16,169.53 300.92,188.63 267.67,192.13" fill="#211d16"/><polygon points="268.35,194.66 299.71,192.41 301.14,210.96 267.78,207.39" fill="#392E1F"/><polygon points="267.55,209.96 299.91,215.14 295.44,233.71 265.68,222.71" fill="#8a4b2d"/><polygon points="265.83,119.32 282.25,99.83 292.81,106.99 272.89,126.37" fill="#9DBBA6"/><polygon points="275.62,127.68 293.9,110.11 301.38,119.62 281.94,135.45" fill="#211d16"/><polygon points="282.99,138.22 304.64,121.82 311.34,133.08 288.78,146.29" fill="#C97567"/><polygon points="291.56,147.97 312.8,135.09 319.63,146.92 295.61,157.21" fill="#8a4b2d"/><polygon points="296.84,159.79 320.04,149.1 324.91,161.79 299.16,169.58" fill="#211d16"/><polygon points="301.15,171.97 325.51,165.16 328.45,176.44 303.08,181.84" fill="#A8B4B8"/><polygon points="304.19,184.56 329.8,181.41 330.53,193.01 304.75,194.63" fill="#211d16"/><polygon points="305.39,197.47 329.42,197.76 329.52,209.77 304.72,207.55" fill="#392E1F"/><polygon points="303.83,210.34 329.91,212.32 327.88,225.77 302.75,220.31" fill="#B65432"/><polygon points="302.51,223.19 327.04,227.78 323.88,240.36 298.41,232.43" fill="#211d16"/><polygon points="297.48,235.1 322.51,245.14 317.76,256.5 294.81,244.82" fill="#211d16"/><polygon points="292.69,246.95 316.31,258.17 309.55,270.25 288.25,255.92" fill="#211d16"/><polygon points="286.46,258.14 307.97,273.23 300.65,283.85 281.28,266.8" fill="#8a4b2d"/><polygon points="279.54,269.09 298.54,286.69 289.37,294.58 271.64,275.43" fill="#211d16"/><polygon points="270.11,277.97 287.27,296.33 276.62,304.4 262.38,284.4" fill="#211d16"/><polygon points="260.39,286.56 274.87,306.44 263.76,313.2 251.66,291.66" fill="#C97567"/><polygon points="248.93,292.62 260.5,315.84 249.57,319.63 240.01,297.32" fill="#C97567"/><polygon points="237.38,298.48 246.89,321.81 234.02,326.43 227.73,301.46" fill="#211d16"/><polygon points="224.98,302.26 231.59,325.35 218.88,329.2 214.95,303.35" fill="#9DBBA6"/><polygon points="212.09,303.4 214.97,330.04 203.25,330.99 202.11,303.31" fill="#A8B4B8"/><polygon points="199.29,303.83 199.95,331.5 187.31,329.83 189.26,304.09" fill="#211d16"/><polygon points="186.36,304.31 182.64,329.64 170.69,326.1 176.65,301.58" fill="#392E1F"/><polygon points="173.76,301.4 167.76,326.56 154.51,322.74 164.69,296.99" fill="#211d16"/><polygon points="161.63,297.08 152.12,320.35 140.68,317.32 152.75,292.47" fill="#8a4b2d"/><polygon points="149.76,292.04 137.85,313.54 125.71,308.28 141.32,286.6" fill="#211d16"/><polygon points="139.03,284.89 124.99,305.98 113.68,297.31 132.04,277.67" fill="#211d16"/><polygon points="129.46,276.32 112.18,295.53 103.37,286.08 121.94,269.7" fill="#B65432"/><polygon points="120.12,267.5 101.19,284.57 92.4,275.46 113.32,260.02" fill="#211d16"/><polygon points="111.78,257.59 90.72,271.25 85.17,259.47 107.39,248.5" fill="#211d16"/><polygon points="106.57,245.73 83.68,257.71 77.99,246.13 102.85,236.48" fill="#9DBBA6"/><polygon points="100.52,234.29 76.53,242.39 71.92,229.89 97.39,224.68" fill="#8a4b2d"/><polygon points="98.29,221.55 71.59,227.69 70.23,214.18 96.83,211.69" fill="#211d16"/><polygon points="96.25,208.9 69.12,211.38 68.92,198.39 95.95,198.92" fill="#211d16"/><polygon points="96.71,196.11 70.03,195.27 70.73,181.71 97.44,186.22" fill="#A8B4B8"/><polygon points="97.53,183.37 72.41,178.32 73.58,166.29 98.83,173.44" fill="#CDB878"/><polygon points="99.35,170.62 73.83,163.27 79,152.3 103.12,161.31" fill="#8a4b2d"/><polygon points="103.96,158.57 79.99,148.47 86.1,138.24 109.11,149.97" fill="#9DBBA6"/><polygon points="109.16,146.72 87.16,132.73 93.72,123.27 114.89,138.42" fill="#C97567"/><polygon points="116.92,136.36 96.47,119.55 104.17,110.77 124.35,129.59" fill="#8a4b2d"/><polygon points="125.28,126.55 107.59,107.92 116.13,101.21 133.22,120.39" fill="#C97567"/><polygon points="135.11,118.22 119.9,97.71 129.01,90.87 143.4,112.62" fill="#C97567"/><polygon points="146.08,111.57 133.36,89.33 143.22,81.94 154.43,106.05" fill="#8a4b2d"/><polygon points="156.98,104.79 145.61,80.24 156.81,75.9 166.68,102.21" fill="#211d16"/><polygon points="168.82,99.61 161.15,75.89 173.29,72.45 178.52,96.79" fill="#211d16"/><polygon points="181.48,97.04 176.53,71.41 189.19,70.32 191.45,96" fill="#211d16"/><polygon points="194.27,95.41 193.5,70.77 205.55,69.65 204.27,96.29" fill="#211d16"/><polygon points="207.09,96.64 208.8,68.92 220.99,71.21 217.07,97.08" fill="#B65432"/><polygon points="220.05,96.67 225.18,72.25 237.39,76 229.65,99.75" fill="#8a4b2d"/><polygon points="232.54,100.09 239.46,76.26 253.14,79.93 241.51,104.69" fill="#392E1F"/><polygon points="244.5,105 254.69,82.87 267.66,87.5 253.48,109.55" fill="#9DBBA6"/><polygon points="255.65,111.47 269.82,89.03 279.82,96.04 264.26,116.72" fill="#9DBBA6"/><polygon points="71.02,167.58 46.48,161.02 52.6,144.49 73.95,152.84" fill="#211d16"/><polygon points="76.64,150.74 53.56,140.74 61.29,125.08 81.65,136.62" fill="#211d16"/><polygon points="84.04,134.59 61.89,121.23 71.53,107.51 90.98,121.28" fill="#211d16"/><polygon points="93.6,119.57 73.35,104.13 83.91,91.02 102.75,107.74" fill="#C97567"/><polygon points="104.88,105.71 87.48,89.58 100.25,77.76 116.22,95.98" fill="#8a4b2d"/><polygon points="117.72,93.14 104.74,74.5 117.88,63.64 130.21,84.72" fill="#211d16"/><polygon points="133.27,84.11 121.43,62.77 137.07,55 146.55,77.25" fill="#211d16"/><polygon points="149.46,76.61 140.16,53.74 156.13,49.11 163.57,71.86" fill="#8a4b2d"/><polygon points="166.48,71.46 161,45.74 178.31,43.27 181.01,68.42" fill="#8a4b2d"/><polygon points="183.77,66.98 181.34,43.94 198.16,41.7 198.7,65.27" fill="#8a4b2d"/><polygon points="201.66,65.04 202.4,42.97 218.97,42.19 216.48,67.83" fill="#211d16"/><polygon points="219.63,66.45 222.86,43.12 240.5,47.98 234.18,70.33" fill="#392E1F"/><polygon points="237.11,70.78 243.38,47.36 259.9,53.3 251.42,75.41" fill="#211d16"/><polygon points="253.74,77.48 263.02,55.65 280.03,63.71 266.63,84.99" fill="#CDB878"/><polygon points="269.31,86.2 282.83,65.65 296.75,75.65 282.19,93.83" fill="#8a4b2d"/><polygon points="284.16,96.07 300.04,78.15 313.61,88.91 295.49,105.85" fill="#9DBBA6"/><polygon points="297.02,108.45 316.21,91.2 325.51,104.84 307.98,118.82" fill="#CDB878"/><polygon points="307.84,122.57 329.09,106.7 339.19,122.47 316.74,134.56" fill="#B65432"/><polygon points="318.31,137.04 339.48,127.03 347.04,141.5 324.08,150.84" fill="#392E1F"/><polygon points="324.69,153.73 348.45,144.56 354.03,161.12 329.75,167.76" fill="#9DBBA6"/><polygon points="330.82,170.52 354.42,164.63 356.86,181.9 333.13,185.31" fill="#8a4b2d"/><polygon points="334.59,188.13 358.27,186.46 359.06,203.94 334.35,203.2" fill="#211d16"/><polygon points="334.17,206.14 358.27,207.89 355.61,224.97 332.24,221" fill="#CDB878"/><polygon points="331,223.76 354.78,228.08 350.33,245.87 328.96,238.65" fill="#211d16"/><polygon points="326.73,241.02 350.33,249.9 343.72,264.56 322.03,255.21" fill="#8a4b2d"/><polygon points="320.42,257.69 343.3,268.81 334.04,284.13 312.61,270.37" fill="#8a4b2d"/><polygon points="311.8,273.32 331.03,286.52 321.05,301.46 302.86,285.28" fill="#392E1F"/><polygon points="300.9,287.45 320.17,303 307.45,317.13 290.78,298.45" fill="#8a4b2d"/><polygon points="289.1,300.98 304.96,318.23 290.89,330.3 277.06,309.98" fill="#C97567"/><polygon points="274.47,311.4 287.35,330.96 272.62,341.58 261.08,318.04" fill="#B65432"/><polygon points="258.73,319.85 269.98,342.42 253.6,349.56 244.94,325.5" fill="#211d16"/><polygon points="242.2,326.53 248.82,349.89 231.98,355.17 227.74,330.06" fill="#211d16"/><polygon points="224.95,330.95 230.49,354.95 211.94,358.73 210.28,334.23" fill="#9DBBA6"/><polygon points="207.28,333.22 207.81,357.29 191.03,358.2 192.39,332.82" fill="#211d16"/><polygon points="189.37,334.04 188.62,358.54 169.51,356.17 174.54,331.75" fill="#392E1F"/><polygon points="171.53,331.77 166.68,355.48 148.44,349.94 157.55,326.17" fill="#211d16"/><polygon points="154.86,325.02 147.03,349.46 128.87,342.25 140.69,320.24" fill="#9DBBA6"/><polygon points="137.99,319.06 126.76,339.32 111.84,331.79 125.4,310.94" fill="#8a4b2d"/><polygon points="122.91,309.39 110,329.55 95.55,319.53 110.67,300.7" fill="#8a4b2d"/><polygon points="108.32,298.89 92.44,315.41 79.72,303.17 99.05,287.02" fill="#C97567"/><polygon points="95.94,285.81 77.71,299.47 67.04,286.56 88.78,272.51" fill="#211d16"/><polygon points="87.15,270.1 66.25,282.77 58.07,268.37 78.56,257.78" fill="#211d16"/><polygon points="76.81,255.34 55.26,265.12 48.7,247.92 73.48,240.59" fill="#392E1F"/><polygon points="70.47,238.44 48.95,244.96 45.25,228.4 68.92,223.41" fill="#392E1F"/><polygon points="67.67,220.65 44.34,223.12 42.89,206.22 66.43,205.75" fill="#211d16"/><polygon points="66.03,202.83 42.95,204.03 42.83,186.25 66.78,187.89" fill="#211d16"/><polygon points="65.97,184.85 42.54,181.81 45.48,163.53 70.18,170.38" fill="#9DBBA6"/><circle cx="200" cy="200" r="168" fill="none" stroke="#211d16" stroke-width="3"/><circle cx="200" cy="200" r="31" fill="#F2C7B6"/><circle cx="200" cy="200" r="24" fill="#8a4b2d" stroke="#392E1F" stroke-width="1.5"/></g></g><g transform="translate(470,20) scale(0.95)"><defs><clipPath id="cut-right"><polygon points="400,20 189.38,20 209.96,80 186.67,140 214.68,162 188.68,172 210.68,179 210.69,200 191.16,260 182.8,282 208.8,292 186.8,299 206.44,320 195.09,380 400,380"/></clipPath></defs><g clip-path="url(#cut-right)"><circle cx="200" cy="200" r="166" fill="#FBF6EC"/><polygon points="337.88,198.18 315.14,251.6 260.56,268.85 221.48,273.89 185.06,282 138.09,281.07 90.41,252.97 74.86,198.18 100.62,148.3 140.5,118.3 184.24,110.72 223.34,114.28 274.84,109.59 322.7,141.11" fill="#F3E9D0" fill-opacity="0.5"/><polygon points="300.67,197.67 284.3,236.13 245,248.55 216.86,252.18 190.64,258.02 156.82,257.35 122.49,237.12 111.29,197.67 129.84,161.76 158.55,140.16 190.05,134.7 218.2,137.26 255.28,133.89 289.74,156.58" fill="#F3E9D0" fill-opacity="0.3"/><polygon points="332.93,203.36 306.25,239.79 280.83,266.01 258.44,293.91 229.04,333.1 181.23,344.74 126.91,340.62 81.6,307.88 74.02,251.46 88,203.36 99.24,164.45 134.24,143.02 152.64,110.67 185.52,86.3 231.6,59.11 280.9,73.9 328.91,100.24 343.86,153.25" fill="#F2C7B6" fill-opacity="0.67"/><polygon points="297.52,203.59 278.31,229.82 260,248.7 243.88,268.78 222.72,297 188.29,305.38 149.18,302.42 116.56,278.84 111.1,238.22 121.17,203.59 129.26,175.57 154.46,160.14 167.71,136.85 191.38,119.31 224.56,99.73 260.05,110.38 294.62,129.34 305.39,167.51" fill="#F2C7B6" fill-opacity="0.3"/><polygon points="314.98,205.97 332.56,256.82 311.7,306.6 260.84,325.52 210.9,309.43 171.75,309.87 130.91,299.19 75.53,283.85 50.53,234.16 82.56,183.77 113.15,151.38 133.91,116.71 163.38,72.63 214.87,59.72 266.36,75.33 283.99,130.6 293.47,170.27" fill="#DFEDE3" fill-opacity="0.66"/><polygon points="282.97,205.81 295.63,242.42 280.61,278.26 243.99,291.89 208.04,280.3 179.85,280.62 150.44,272.93 110.57,261.88 92.57,226.11 115.63,189.83 137.66,166.51 152.6,141.54 173.82,109.81 210.89,100.51 247.97,111.75 260.66,151.54 267.49,180.11" fill="#DFEDE3" fill-opacity="0.3"/><polygon points="241.95,192.26 263.37,188.34 265.45,206.12 241.29,203.65" fill="#211d16"/><polygon points="242.21,206.3 264.68,209.25 260.16,226.72 238.21,217.01" fill="#211d16"/><polygon points="238.02,219.74 258.14,230.04 246.75,243.33 231.06,228.91" fill="#392E1F"/><polygon points="229.13,230.58 244.62,247.27 230.75,257.46 220.09,237.63" fill="#C97567"/><polygon points="217.51,238.12 227.23,259.33 210.9,264.79 206.62,241.1" fill="#9DBBA6"/><polygon points="204.12,241.11 206.47,265.11 188.54,264.53 192.7,242.3" fill="#211d16"/><polygon points="190.2,241.71 184.81,262.82 169.36,256.04 179.92,236.62" fill="#A8B4B8"/><polygon points="177.88,235.16 165.47,255.8 153.16,243.24 169.76,227.53" fill="#211d16"/><polygon points="167.67,226.07 150.14,240.05 141.02,225.23 161.75,216.52" fill="#A8B4B8"/><polygon points="159.71,214.61 138.21,222.89 135.43,205.29 158.12,203.24" fill="#211d16"/><polygon points="159.02,200.7 134.59,200.91 136.71,183.24 160.5,189.76" fill="#A8B4B8"/><polygon points="160.08,187.06 137.64,179.69 146.31,164.47 165.11,176.93" fill="#8a4b2d"/><polygon points="167.48,175.57 147.39,160.53 160.66,149 174.31,166.61" fill="#211d16"/><polygon points="176.91,165.95 163.36,145.58 178.96,137.61 186.94,161.24" fill="#211d16"/><polygon points="189.01,159.52 182.24,136.43 199.97,134.02 200.23,157.79" fill="#B65432"/><polygon points="202.73,158.46 204.33,134.23 221.47,138.71 213.59,161.11" fill="#211d16"/><polygon points="216.5,160.56 224.9,139.4 239.89,148.7 225.83,167.19" fill="#A8B4B8"/><polygon points="228.56,167.89 243.23,150.87 253.34,165.03 234.26,177.89" fill="#392E1F"/><polygon points="236.75,179.29 256.36,168.75 264,184.13 240.93,189.88" fill="#CDB878"/><polygon points="264.3,225 294.81,236.46 285.9,254.42 258.7,236.59" fill="#A8B4B8"/><polygon points="256.26,238.09 283.27,256.1 271.79,271.39 248.41,248.06" fill="#211d16"/><polygon points="246.44,249.73 269.54,274.15 254.43,284.53 236.45,257.54" fill="#C97567"/><polygon points="234.63,259.54 250.01,287.19 233.11,295.67 223.03,265.07" fill="#211d16"/><polygon points="220.14,264.55 230.52,297.01 211.51,300.37 208.05,269.18" fill="#9DBBA6"/><polygon points="205.41,269.23 207.16,299.53 189.04,300.76 192.66,267.3" fill="#211d16"/><polygon points="190.09,267.2 184.73,299.87 166.26,296.18 177.9,263.9" fill="#211d16"/><polygon points="175.55,262.9 164.06,294.43 145.85,285.71 164.13,257.55" fill="#211d16"/><polygon points="161.22,257.27 143.94,282.36 129.42,272 151.27,249.08" fill="#211d16"/><polygon points="149.49,247.17 126.55,268.26 115.47,253.91 142.23,236.59" fill="#211d16"/><polygon points="140.13,234.83 113.22,250.9 104.76,234.3 135.51,222.83" fill="#211d16"/><polygon points="133.8,220.65 104.29,229.48 98.95,211.07 130.85,208.05" fill="#B65432"/><polygon points="130.79,205.41 98.48,207.27 100.38,188.98 130.93,192.47" fill="#8a4b2d"/><polygon points="131.56,189.91 100.14,185.49 103.85,166.14 134.29,177.27" fill="#211d16"/><polygon points="135.8,175.04 106.51,163.55 114.99,146.76 142.25,164" fill="#211d16"/><polygon points="143.82,161.96 117,144.16 129.44,129.58 151.16,151.51" fill="#C97567"/><polygon points="153.48,150.19 132.28,126.79 146.51,115.43 162.76,141.21" fill="#9DBBA6"/><polygon points="165.67,140.98 149.05,112.49 166.41,104.38 177.41,136.18" fill="#211d16"/><polygon points="179.5,134.3 169.54,104.52 188.87,99.97 192.15,132.56" fill="#C97567"/><polygon points="194.72,132.5 192.4,99.05 211.23,98.73 207.51,131.08" fill="#8a4b2d"/><polygon points="209.87,133.02 214.6,101.24 232.23,104.62 222.44,135.13" fill="#211d16"/><polygon points="224.87,136.02 237.11,105.21 252.84,115.11 235.89,142.42" fill="#211d16"/><polygon points="238.28,143.46 256.03,117.17 270.32,128.86 248.89,150.76" fill="#8a4b2d"/><polygon points="250.86,152.5 272.81,131 284.84,145.53 258.38,163.02" fill="#8a4b2d"/><polygon points="259.2,165.57 287.67,149.79 295.18,166.36 264.88,177.03" fill="#392E1F"/><polygon points="266.39,179.29 296.16,169.53 300.92,188.63 267.67,192.13" fill="#211d16"/><polygon points="268.35,194.66 299.71,192.41 301.14,210.96 267.78,207.39" fill="#392E1F"/><polygon points="267.55,209.96 299.91,215.14 295.44,233.71 265.68,222.71" fill="#8a4b2d"/><polygon points="265.83,119.32 282.25,99.83 292.81,106.99 272.89,126.37" fill="#9DBBA6"/><polygon points="275.62,127.68 293.9,110.11 301.38,119.62 281.94,135.45" fill="#211d16"/><polygon points="282.99,138.22 304.64,121.82 311.34,133.08 288.78,146.29" fill="#C97567"/><polygon points="291.56,147.97 312.8,135.09 319.63,146.92 295.61,157.21" fill="#8a4b2d"/><polygon points="296.84,159.79 320.04,149.1 324.91,161.79 299.16,169.58" fill="#211d16"/><polygon points="301.15,171.97 325.51,165.16 328.45,176.44 303.08,181.84" fill="#A8B4B8"/><polygon points="304.19,184.56 329.8,181.41 330.53,193.01 304.75,194.63" fill="#211d16"/><polygon points="305.39,197.47 329.42,197.76 329.52,209.77 304.72,207.55" fill="#392E1F"/><polygon points="303.83,210.34 329.91,212.32 327.88,225.77 302.75,220.31" fill="#B65432"/><polygon points="302.51,223.19 327.04,227.78 323.88,240.36 298.41,232.43" fill="#211d16"/><polygon points="297.48,235.1 322.51,245.14 317.76,256.5 294.81,244.82" fill="#211d16"/><polygon points="292.69,246.95 316.31,258.17 309.55,270.25 288.25,255.92" fill="#211d16"/><polygon points="286.46,258.14 307.97,273.23 300.65,283.85 281.28,266.8" fill="#8a4b2d"/><polygon points="279.54,269.09 298.54,286.69 289.37,294.58 271.64,275.43" fill="#211d16"/><polygon points="270.11,277.97 287.27,296.33 276.62,304.4 262.38,284.4" fill="#211d16"/><polygon points="260.39,286.56 274.87,306.44 263.76,313.2 251.66,291.66" fill="#C97567"/><polygon points="248.93,292.62 260.5,315.84 249.57,319.63 240.01,297.32" fill="#C97567"/><polygon points="237.38,298.48 246.89,321.81 234.02,326.43 227.73,301.46" fill="#211d16"/><polygon points="224.98,302.26 231.59,325.35 218.88,329.2 214.95,303.35" fill="#9DBBA6"/><polygon points="212.09,303.4 214.97,330.04 203.25,330.99 202.11,303.31" fill="#A8B4B8"/><polygon points="199.29,303.83 199.95,331.5 187.31,329.83 189.26,304.09" fill="#211d16"/><polygon points="186.36,304.31 182.64,329.64 170.69,326.1 176.65,301.58" fill="#392E1F"/><polygon points="173.76,301.4 167.76,326.56 154.51,322.74 164.69,296.99" fill="#211d16"/><polygon points="161.63,297.08 152.12,320.35 140.68,317.32 152.75,292.47" fill="#8a4b2d"/><polygon points="149.76,292.04 137.85,313.54 125.71,308.28 141.32,286.6" fill="#211d16"/><polygon points="139.03,284.89 124.99,305.98 113.68,297.31 132.04,277.67" fill="#211d16"/><polygon points="129.46,276.32 112.18,295.53 103.37,286.08 121.94,269.7" fill="#B65432"/><polygon points="120.12,267.5 101.19,284.57 92.4,275.46 113.32,260.02" fill="#211d16"/><polygon points="111.78,257.59 90.72,271.25 85.17,259.47 107.39,248.5" fill="#211d16"/><polygon points="106.57,245.73 83.68,257.71 77.99,246.13 102.85,236.48" fill="#9DBBA6"/><polygon points="100.52,234.29 76.53,242.39 71.92,229.89 97.39,224.68" fill="#8a4b2d"/><polygon points="98.29,221.55 71.59,227.69 70.23,214.18 96.83,211.69" fill="#211d16"/><polygon points="96.25,208.9 69.12,211.38 68.92,198.39 95.95,198.92" fill="#211d16"/><polygon points="96.71,196.11 70.03,195.27 70.73,181.71 97.44,186.22" fill="#A8B4B8"/><polygon points="97.53,183.37 72.41,178.32 73.58,166.29 98.83,173.44" fill="#CDB878"/><polygon points="99.35,170.62 73.83,163.27 79,152.3 103.12,161.31" fill="#8a4b2d"/><polygon points="103.96,158.57 79.99,148.47 86.1,138.24 109.11,149.97" fill="#9DBBA6"/><polygon points="109.16,146.72 87.16,132.73 93.72,123.27 114.89,138.42" fill="#C97567"/><polygon points="116.92,136.36 96.47,119.55 104.17,110.77 124.35,129.59" fill="#8a4b2d"/><polygon points="125.28,126.55 107.59,107.92 116.13,101.21 133.22,120.39" fill="#C97567"/><polygon points="135.11,118.22 119.9,97.71 129.01,90.87 143.4,112.62" fill="#C97567"/><polygon points="146.08,111.57 133.36,89.33 143.22,81.94 154.43,106.05" fill="#8a4b2d"/><polygon points="156.98,104.79 145.61,80.24 156.81,75.9 166.68,102.21" fill="#211d16"/><polygon points="168.82,99.61 161.15,75.89 173.29,72.45 178.52,96.79" fill="#211d16"/><polygon points="181.48,97.04 176.53,71.41 189.19,70.32 191.45,96" fill="#211d16"/><polygon points="194.27,95.41 193.5,70.77 205.55,69.65 204.27,96.29" fill="#211d16"/><polygon points="207.09,96.64 208.8,68.92 220.99,71.21 217.07,97.08" fill="#B65432"/><polygon points="220.05,96.67 225.18,72.25 237.39,76 229.65,99.75" fill="#8a4b2d"/><polygon points="232.54,100.09 239.46,76.26 253.14,79.93 241.51,104.69" fill="#392E1F"/><polygon points="244.5,105 254.69,82.87 267.66,87.5 253.48,109.55" fill="#9DBBA6"/><polygon points="255.65,111.47 269.82,89.03 279.82,96.04 264.26,116.72" fill="#9DBBA6"/><polygon points="71.02,167.58 46.48,161.02 52.6,144.49 73.95,152.84" fill="#211d16"/><polygon points="76.64,150.74 53.56,140.74 61.29,125.08 81.65,136.62" fill="#211d16"/><polygon points="84.04,134.59 61.89,121.23 71.53,107.51 90.98,121.28" fill="#211d16"/><polygon points="93.6,119.57 73.35,104.13 83.91,91.02 102.75,107.74" fill="#C97567"/><polygon points="104.88,105.71 87.48,89.58 100.25,77.76 116.22,95.98" fill="#8a4b2d"/><polygon points="117.72,93.14 104.74,74.5 117.88,63.64 130.21,84.72" fill="#211d16"/><polygon points="133.27,84.11 121.43,62.77 137.07,55 146.55,77.25" fill="#211d16"/><polygon points="149.46,76.61 140.16,53.74 156.13,49.11 163.57,71.86" fill="#8a4b2d"/><polygon points="166.48,71.46 161,45.74 178.31,43.27 181.01,68.42" fill="#8a4b2d"/><polygon points="183.77,66.98 181.34,43.94 198.16,41.7 198.7,65.27" fill="#8a4b2d"/><polygon points="201.66,65.04 202.4,42.97 218.97,42.19 216.48,67.83" fill="#211d16"/><polygon points="219.63,66.45 222.86,43.12 240.5,47.98 234.18,70.33" fill="#392E1F"/><polygon points="237.11,70.78 243.38,47.36 259.9,53.3 251.42,75.41" fill="#211d16"/><polygon points="253.74,77.48 263.02,55.65 280.03,63.71 266.63,84.99" fill="#CDB878"/><polygon points="269.31,86.2 282.83,65.65 296.75,75.65 282.19,93.83" fill="#8a4b2d"/><polygon points="284.16,96.07 300.04,78.15 313.61,88.91 295.49,105.85" fill="#9DBBA6"/><polygon points="297.02,108.45 316.21,91.2 325.51,104.84 307.98,118.82" fill="#CDB878"/><polygon points="307.84,122.57 329.09,106.7 339.19,122.47 316.74,134.56" fill="#B65432"/><polygon points="318.31,137.04 339.48,127.03 347.04,141.5 324.08,150.84" fill="#392E1F"/><polygon points="324.69,153.73 348.45,144.56 354.03,161.12 329.75,167.76" fill="#9DBBA6"/><polygon points="330.82,170.52 354.42,164.63 356.86,181.9 333.13,185.31" fill="#8a4b2d"/><polygon points="334.59,188.13 358.27,186.46 359.06,203.94 334.35,203.2" fill="#211d16"/><polygon points="334.17,206.14 358.27,207.89 355.61,224.97 332.24,221" fill="#CDB878"/><polygon points="331,223.76 354.78,228.08 350.33,245.87 328.96,238.65" fill="#211d16"/><polygon points="326.73,241.02 350.33,249.9 343.72,264.56 322.03,255.21" fill="#8a4b2d"/><polygon points="320.42,257.69 343.3,268.81 334.04,284.13 312.61,270.37" fill="#8a4b2d"/><polygon points="311.8,273.32 331.03,286.52 321.05,301.46 302.86,285.28" fill="#392E1F"/><polygon points="300.9,287.45 320.17,303 307.45,317.13 290.78,298.45" fill="#8a4b2d"/><polygon points="289.1,300.98 304.96,318.23 290.89,330.3 277.06,309.98" fill="#C97567"/><polygon points="274.47,311.4 287.35,330.96 272.62,341.58 261.08,318.04" fill="#B65432"/><polygon points="258.73,319.85 269.98,342.42 253.6,349.56 244.94,325.5" fill="#211d16"/><polygon points="242.2,326.53 248.82,349.89 231.98,355.17 227.74,330.06" fill="#211d16"/><polygon points="224.95,330.95 230.49,354.95 211.94,358.73 210.28,334.23" fill="#9DBBA6"/><polygon points="207.28,333.22 207.81,357.29 191.03,358.2 192.39,332.82" fill="#211d16"/><polygon points="189.37,334.04 188.62,358.54 169.51,356.17 174.54,331.75" fill="#392E1F"/><polygon points="171.53,331.77 166.68,355.48 148.44,349.94 157.55,326.17" fill="#211d16"/><polygon points="154.86,325.02 147.03,349.46 128.87,342.25 140.69,320.24" fill="#9DBBA6"/><polygon points="137.99,319.06 126.76,339.32 111.84,331.79 125.4,310.94" fill="#8a4b2d"/><polygon points="122.91,309.39 110,329.55 95.55,319.53 110.67,300.7" fill="#8a4b2d"/><polygon points="108.32,298.89 92.44,315.41 79.72,303.17 99.05,287.02" fill="#C97567"/><polygon points="95.94,285.81 77.71,299.47 67.04,286.56 88.78,272.51" fill="#211d16"/><polygon points="87.15,270.1 66.25,282.77 58.07,268.37 78.56,257.78" fill="#211d16"/><polygon points="76.81,255.34 55.26,265.12 48.7,247.92 73.48,240.59" fill="#392E1F"/><polygon points="70.47,238.44 48.95,244.96 45.25,228.4 68.92,223.41" fill="#392E1F"/><polygon points="67.67,220.65 44.34,223.12 42.89,206.22 66.43,205.75" fill="#211d16"/><polygon points="66.03,202.83 42.95,204.03 42.83,186.25 66.78,187.89" fill="#211d16"/><polygon points="65.97,184.85 42.54,181.81 45.48,163.53 70.18,170.38" fill="#9DBBA6"/><circle cx="200" cy="200" r="168" fill="none" stroke="#211d16" stroke-width="3"/><circle cx="200" cy="200" r="31" fill="#F2C7B6"/><circle cx="200" cy="200" r="24" fill="#8a4b2d" stroke="#392E1F" stroke-width="1.5"/></g></g><line x1="440" y1="10" x2="440" y2="430" stroke="#211d16" stroke-width="1" stroke-dasharray="6,6"/><text x="200" y="440" text-anchor="middle" font-family="monospace" font-size="16" fill="#211d16">TSR-4d80-aef7 - keep this half</text><text x="660" y="440" text-anchor="middle" font-family="monospace" font-size="16" fill="#211d16">TSR-4d80-aef7 - travels with the letter</text><text x="440" y="475" text-anchor="middle" font-family="serif" font-size="14" fill="#211d16">Cut along the dashed line. The broken edge is the signature; the halves must meet.</text><g transform="translate(800,410) scale(0.18)"><circle cx="200" cy="200" r="166" fill="#FBF6EC"/><polygon points="337.88,198.18 315.14,251.6 260.56,268.85 221.48,273.89 185.06,282 138.09,281.07 90.41,252.97 74.86,198.18 100.62,148.3 140.5,118.3 184.24,110.72 223.34,114.28 274.84,109.59 322.7,141.11" fill="#F3E9D0" fill-opacity="0.5"/><polygon points="300.67,197.67 284.3,236.13 245,248.55 216.86,252.18 190.64,258.02 156.82,257.35 122.49,237.12 111.29,197.67 129.84,161.76 158.55,140.16 190.05,134.7 218.2,137.26 255.28,133.89 289.74,156.58" fill="#F3E9D0" fill-opacity="0.3"/><polygon points="332.93,203.36 306.25,239.79 280.83,266.01 258.44,293.91 229.04,333.1 181.23,344.74 126.91,340.62 81.6,307.88 74.02,251.46 88,203.36 99.24,164.45 134.24,143.02 152.64,110.67 185.52,86.3 231.6,59.11 280.9,73.9 328.91,100.24 343.86,153.25" fill="#F2C7B6" fill-opacity="0.67"/><polygon points="297.52,203.59 278.31,229.82 260,248.7 243.88,268.78 222.72,297 188.29,305.38 149.18,302.42 116.56,278.84 111.1,238.22 121.17,203.59 129.26,175.57 154.46,160.14 167.71,136.85 191.38,119.31 224.56,99.73 260.05,110.38 294.62,129.34 305.39,167.51" fill="#F2C7B6" fill-opacity="0.3"/><polygon points="314.98,205.97 332.56,256.82 311.7,306.6 260.84,325.52 210.9,309.43 171.75,309.87 130.91,299.19 75.53,283.85 50.53,234.16 82.56,183.77 113.15,151.38 133.91,116.71 163.38,72.63 214.87,59.72 266.36,75.33 283.99,130.6 293.47,170.27" fill="#DFEDE3" fill-opacity="0.66"/><polygon points="282.97,205.81 295.63,242.42 280.61,278.26 243.99,291.89 208.04,280.3 179.85,280.62 150.44,272.93 110.57,261.88 92.57,226.11 115.63,189.83 137.66,166.51 152.6,141.54 173.82,109.81 210.89,100.51 247.97,111.75 260.66,151.54 267.49,180.11" fill="#DFEDE3" fill-opacity="0.3"/><polygon points="241.95,192.26 263.37,188.34 265.45,206.12 241.29,203.65" fill="#211d16"/><polygon points="242.21,206.3 264.68,209.25 260.16,226.72 238.21,217.01" fill="#211d16"/><polygon points="238.02,219.74 258.14,230.04 246.75,243.33 231.06,228.91" fill="#392E1F"/><polygon points="229.13,230.58 244.62,247.27 230.75,257.46 220.09,237.63" fill="#C97567"/><polygon points="217.51,238.12 227.23,259.33 210.9,264.79 206.62,241.1" fill="#9DBBA6"/><polygon points="204.12,241.11 206.47,265.11 188.54,264.53 192.7,242.3" fill="#211d16"/><polygon points="190.2,241.71 184.81,262.82 169.36,256.04 179.92,236.62" fill="#A8B4B8"/><polygon points="177.88,235.16 165.47,255.8 153.16,243.24 169.76,227.53" fill="#211d16"/><polygon points="167.67,226.07 150.14,240.05 141.02,225.23 161.75,216.52" fill="#A8B4B8"/><polygon points="159.71,214.61 138.21,222.89 135.43,205.29 158.12,203.24" fill="#211d16"/><polygon points="159.02,200.7 134.59,200.91 136.71,183.24 160.5,189.76" fill="#A8B4B8"/><polygon points="160.08,187.06 137.64,179.69 146.31,164.47 165.11,176.93" fill="#8a4b2d"/><polygon points="167.48,175.57 147.39,160.53 160.66,149 174.31,166.61" fill="#211d16"/><polygon points="176.91,165.95 163.36,145.58 178.96,137.61 186.94,161.24" fill="#211d16"/><polygon points="189.01,159.52 182.24,136.43 199.97,134.02 200.23,157.79" fill="#B65432"/><polygon points="202.73,158.46 204.33,134.23 221.47,138.71 213.59,161.11" fill="#211d16"/><polygon points="216.5,160.56 224.9,139.4 239.89,148.7 225.83,167.19" fill="#A8B4B8"/><polygon points="228.56,167.89 243.23,150.87 253.34,165.03 234.26,177.89" fill="#392E1F"/><polygon points="236.75,179.29 256.36,168.75 264,184.13 240.93,189.88" fill="#CDB878"/><polygon points="264.3,225 294.81,236.46 285.9,254.42 258.7,236.59" fill="#A8B4B8"/><polygon points="256.26,238.09 283.27,256.1 271.79,271.39 248.41,248.06" fill="#211d16"/><polygon points="246.44,249.73 269.54,274.15 254.43,284.53 236.45,257.54" fill="#C97567"/><polygon points="234.63,259.54 250.01,287.19 233.11,295.67 223.03,265.07" fill="#211d16"/><polygon points="220.14,264.55 230.52,297.01 211.51,300.37 208.05,269.18" fill="#9DBBA6"/><polygon points="205.41,269.23 207.16,299.53 189.04,300.76 192.66,267.3" fill="#211d16"/><polygon points="190.09,267.2 184.73,299.87 166.26,296.18 177.9,263.9" fill="#211d16"/><polygon points="175.55,262.9 164.06,294.43 145.85,285.71 164.13,257.55" fill="#211d16"/><polygon points="161.22,257.27 143.94,282.36 129.42,272 151.27,249.08" fill="#211d16"/><polygon points="149.49,247.17 126.55,268.26 115.47,253.91 142.23,236.59" fill="#211d16"/><polygon points="140.13,234.83 113.22,250.9 104.76,234.3 135.51,222.83" fill="#211d16"/><polygon points="133.8,220.65 104.29,229.48 98.95,211.07 130.85,208.05" fill="#B65432"/><polygon points="130.79,205.41 98.48,207.27 100.38,188.98 130.93,192.47" fill="#8a4b2d"/><polygon points="131.56,189.91 100.14,185.49 103.85,166.14 134.29,177.27" fill="#211d16"/><polygon points="135.8,175.04 106.51,163.55 114.99,146.76 142.25,164" fill="#211d16"/><polygon points="143.82,161.96 117,144.16 129.44,129.58 151.16,151.51" fill="#C97567"/><polygon points="153.48,150.19 132.28,126.79 146.51,115.43 162.76,141.21" fill="#9DBBA6"/><polygon points="165.67,140.98 149.05,112.49 166.41,104.38 177.41,136.18" fill="#211d16"/><polygon points="179.5,134.3 169.54,104.52 188.87,99.97 192.15,132.56" fill="#C97567"/><polygon points="194.72,132.5 192.4,99.05 211.23,98.73 207.51,131.08" fill="#8a4b2d"/><polygon points="209.87,133.02 214.6,101.24 232.23,104.62 222.44,135.13" fill="#211d16"/><polygon points="224.87,136.02 237.11,105.21 252.84,115.11 235.89,142.42" fill="#211d16"/><polygon points="238.28,143.46 256.03,117.17 270.32,128.86 248.89,150.76" fill="#8a4b2d"/><polygon points="250.86,152.5 272.81,131 284.84,145.53 258.38,163.02" fill="#8a4b2d"/><polygon points="259.2,165.57 287.67,149.79 295.18,166.36 264.88,177.03" fill="#392E1F"/><polygon points="266.39,179.29 296.16,169.53 300.92,188.63 267.67,192.13" fill="#211d16"/><polygon points="268.35,194.66 299.71,192.41 301.14,210.96 267.78,207.39" fill="#392E1F"/><polygon points="267.55,209.96 299.91,215.14 295.44,233.71 265.68,222.71" fill="#8a4b2d"/><polygon points="265.83,119.32 282.25,99.83 292.81,106.99 272.89,126.37" fill="#9DBBA6"/><polygon points="275.62,127.68 293.9,110.11 301.38,119.62 281.94,135.45" fill="#211d16"/><polygon points="282.99,138.22 304.64,121.82 311.34,133.08 288.78,146.29" fill="#C97567"/><polygon points="291.56,147.97 312.8,135.09 319.63,146.92 295.61,157.21" fill="#8a4b2d"/><polygon points="296.84,159.79 320.04,149.1 324.91,161.79 299.16,169.58" fill="#211d16"/><polygon points="301.15,171.97 325.51,165.16 328.45,176.44 303.08,181.84" fill="#A8B4B8"/><polygon points="304.19,184.56 329.8,181.41 330.53,193.01 304.75,194.63" fill="#211d16"/><polygon points="305.39,197.47 329.42,197.76 329.52,209.77 304.72,207.55" fill="#392E1F"/><polygon points="303.83,210.34 329.91,212.32 327.88,225.77 302.75,220.31" fill="#B65432"/><polygon points="302.51,223.19 327.04,227.78 323.88,240.36 298.41,232.43" fill="#211d16"/><polygon points="297.48,235.1 322.51,245.14 317.76,256.5 294.81,244.82" fill="#211d16"/><polygon points="292.69,246.95 316.31,258.17 309.55,270.25 288.25,255.92" fill="#211d16"/><polygon points="286.46,258.14 307.97,273.23 300.65,283.85 281.28,266.8" fill="#8a4b2d"/><polygon points="279.54,269.09 298.54,286.69 289.37,294.58 271.64,275.43" fill="#211d16"/><polygon points="270.11,277.97 287.27,296.33 276.62,304.4 262.38,284.4" fill="#211d16"/><polygon points="260.39,286.56 274.87,306.44 263.76,313.2 251.66,291.66" fill="#C97567"/><polygon points="248.93,292.62 260.5,315.84 249.57,319.63 240.01,297.32" fill="#C97567"/><polygon points="237.38,298.48 246.89,321.81 234.02,326.43 227.73,301.46" fill="#211d16"/><polygon points="224.98,302.26 231.59,325.35 218.88,329.2 214.95,303.35" fill="#9DBBA6"/><polygon points="212.09,303.4 214.97,330.04 203.25,330.99 202.11,303.31" fill="#A8B4B8"/><polygon points="199.29,303.83 199.95,331.5 187.31,329.83 189.26,304.09" fill="#211d16"/><polygon points="186.36,304.31 182.64,329.64 170.69,326.1 176.65,301.58" fill="#392E1F"/><polygon points="173.76,301.4 167.76,326.56 154.51,322.74 164.69,296.99" fill="#211d16"/><polygon points="161.63,297.08 152.12,320.35 140.68,317.32 152.75,292.47" fill="#8a4b2d"/><polygon points="149.76,292.04 137.85,313.54 125.71,308.28 141.32,286.6" fill="#211d16"/><polygon points="139.03,284.89 124.99,305.98 113.68,297.31 132.04,277.67" fill="#211d16"/><polygon points="129.46,276.32 112.18,295.53 103.37,286.08 121.94,269.7" fill="#B65432"/><polygon points="120.12,267.5 101.19,284.57 92.4,275.46 113.32,260.02" fill="#211d16"/><polygon points="111.78,257.59 90.72,271.25 85.17,259.47 107.39,248.5" fill="#211d16"/><polygon points="106.57,245.73 83.68,257.71 77.99,246.13 102.85,236.48" fill="#9DBBA6"/><polygon points="100.52,234.29 76.53,242.39 71.92,229.89 97.39,224.68" fill="#8a4b2d"/><polygon points="98.29,221.55 71.59,227.69 70.23,214.18 96.83,211.69" fill="#211d16"/><polygon points="96.25,208.9 69.12,211.38 68.92,198.39 95.95,198.92" fill="#211d16"/><polygon points="96.71,196.11 70.03,195.27 70.73,181.71 97.44,186.22" fill="#A8B4B8"/><polygon points="97.53,183.37 72.41,178.32 73.58,166.29 98.83,173.44" fill="#CDB878"/><polygon points="99.35,170.62 73.83,163.27 79,152.3 103.12,161.31" fill="#8a4b2d"/><polygon points="103.96,158.57 79.99,148.47 86.1,138.24 109.11,149.97" fill="#9DBBA6"/><polygon points="109.16,146.72 87.16,132.73 93.72,123.27 114.89,138.42" fill="#C97567"/><polygon points="116.92,136.36 96.47,119.55 104.17,110.77 124.35,129.59" fill="#8a4b2d"/><polygon points="125.28,126.55 107.59,107.92 116.13,101.21 133.22,120.39" fill="#C97567"/><polygon points="135.11,118.22 119.9,97.71 129.01,90.87 143.4,112.62" fill="#C97567"/><polygon points="146.08,111.57 133.36,89.33 143.22,81.94 154.43,106.05" fill="#8a4b2d"/><polygon points="156.98,104.79 145.61,80.24 156.81,75.9 166.68,102.21" fill="#211d16"/><polygon points="168.82,99.61 161.15,75.89 173.29,72.45 178.52,96.79" fill="#211d16"/><polygon points="181.48,97.04 176.53,71.41 189.19,70.32 191.45,96" fill="#211d16"/><polygon points="194.27,95.41 193.5,70.77 205.55,69.65 204.27,96.29" fill="#211d16"/><polygon points="207.09,96.64 208.8,68.92 220.99,71.21 217.07,97.08" fill="#B65432"/><polygon points="220.05,96.67 225.18,72.25 237.39,76 229.65,99.75" fill="#8a4b2d"/><polygon points="232.54,100.09 239.46,76.26 253.14,79.93 241.51,104.69" fill="#392E1F"/><polygon points="244.5,105 254.69,82.87 267.66,87.5 253.48,109.55" fill="#9DBBA6"/><polygon points="255.65,111.47 269.82,89.03 279.82,96.04 264.26,116.72" fill="#9DBBA6"/><polygon points="71.02,167.58 46.48,161.02 52.6,144.49 73.95,152.84" fill="#211d16"/><polygon points="76.64,150.74 53.56,140.74 61.29,125.08 81.65,136.62" fill="#211d16"/><polygon points="84.04,134.59 61.89,121.23 71.53,107.51 90.98,121.28" fill="#211d16"/><polygon points="93.6,119.57 73.35,104.13 83.91,91.02 102.75,107.74" fill="#C97567"/><polygon points="104.88,105.71 87.48,89.58 100.25,77.76 116.22,95.98" fill="#8a4b2d"/><polygon points="117.72,93.14 104.74,74.5 117.88,63.64 130.21,84.72" fill="#211d16"/><polygon points="133.27,84.11 121.43,62.77 137.07,55 146.55,77.25" fill="#211d16"/><polygon points="149.46,76.61 140.16,53.74 156.13,49.11 163.57,71.86" fill="#8a4b2d"/><polygon points="166.48,71.46 161,45.74 178.31,43.27 181.01,68.42" fill="#8a4b2d"/><polygon points="183.77,66.98 181.34,43.94 198.16,41.7 198.7,65.27" fill="#8a4b2d"/><polygon points="201.66,65.04 202.4,42.97 218.97,42.19 216.48,67.83" fill="#211d16"/><polygon points="219.63,66.45 222.86,43.12 240.5,47.98 234.18,70.33" fill="#392E1F"/><polygon points="237.11,70.78 243.38,47.36 259.9,53.3 251.42,75.41" fill="#211d16"/><polygon points="253.74,77.48 263.02,55.65 280.03,63.71 266.63,84.99" fill="#CDB878"/><polygon points="269.31,86.2 282.83,65.65 296.75,75.65 282.19,93.83" fill="#8a4b2d"/><polygon points="284.16,96.07 300.04,78.15 313.61,88.91 295.49,105.85" fill="#9DBBA6"/><polygon points="297.02,108.45 316.21,91.2 325.51,104.84 307.98,118.82" fill="#CDB878"/><polygon points="307.84,122.57 329.09,106.7 339.19,122.47 316.74,134.56" fill="#B65432"/><polygon points="318.31,137.04 339.48,127.03 347.04,141.5 324.08,150.84" fill="#392E1F"/><polygon points="324.69,153.73 348.45,144.56 354.03,161.12 329.75,167.76" fill="#9DBBA6"/><polygon points="330.82,170.52 354.42,164.63 356.86,181.9 333.13,185.31" fill="#8a4b2d"/><polygon points="334.59,188.13 358.27,186.46 359.06,203.94 334.35,203.2" fill="#211d16"/><polygon points="334.17,206.14 358.27,207.89 355.61,224.97 332.24,221" fill="#CDB878"/><polygon points="331,223.76 354.78,228.08 350.33,245.87 328.96,238.65" fill="#211d16"/><polygon points="326.73,241.02 350.33,249.9 343.72,264.56 322.03,255.21" fill="#8a4b2d"/><polygon points="320.42,257.69 343.3,268.81 334.04,284.13 312.61,270.37" fill="#8a4b2d"/><polygon points="311.8,273.32 331.03,286.52 321.05,301.46 302.86,285.28" fill="#392E1F"/><polygon points="300.9,287.45 320.17,303 307.45,317.13 290.78,298.45" fill="#8a4b2d"/><polygon points="289.1,300.98 304.96,318.23 290.89,330.3 277.06,309.98" fill="#C97567"/><polygon points="274.47,311.4 287.35,330.96 272.62,341.58 261.08,318.04" fill="#B65432"/><polygon points="258.73,319.85 269.98,342.42 253.6,349.56 244.94,325.5" fill="#211d16"/><polygon points="242.2,326.53 248.82,349.89 231.98,355.17 227.74,330.06" fill="#211d16"/><polygon points="224.95,330.95 230.49,354.95 211.94,358.73 210.28,334.23" fill="#9DBBA6"/><polygon points="207.28,333.22 207.81,357.29 191.03,358.2 192.39,332.82" fill="#211d16"/><polygon points="189.37,334.04 188.62,358.54 169.51,356.17 174.54,331.75" fill="#392E1F"/><polygon points="171.53,331.77 166.68,355.48 148.44,349.94 157.55,326.17" fill="#211d16"/><polygon points="154.86,325.02 147.03,349.46 128.87,342.25 140.69,320.24" fill="#9DBBA6"/><polygon points="137.99,319.06 126.76,339.32 111.84,331.79 125.4,310.94" fill="#8a4b2d"/><polygon points="122.91,309.39 110,329.55 95.55,319.53 110.67,300.7" fill="#8a4b2d"/><polygon points="108.32,298.89 92.44,315.41 79.72,303.17 99.05,287.02" fill="#C97567"/><polygon points="95.94,285.81 77.71,299.47 67.04,286.56 88.78,272.51" fill="#211d16"/><polygon points="87.15,270.1 66.25,282.77 58.07,268.37 78.56,257.78" fill="#211d16"/><polygon points="76.81,255.34 55.26,265.12 48.7,247.92 73.48,240.59" fill="#392E1F"/><polygon points="70.47,238.44 48.95,244.96 45.25,228.4 68.92,223.41" fill="#392E1F"/><polygon points="67.67,220.65 44.34,223.12 42.89,206.22 66.43,205.75" fill="#211d16"/><polygon points="66.03,202.83 42.95,204.03 42.83,186.25 66.78,187.89" fill="#211d16"/><polygon points="65.97,184.85 42.54,181.81 45.48,163.53 70.18,170.38" fill="#9DBBA6"/><circle cx="200" cy="200" r="168" fill="none" stroke="#211d16" stroke-width="3"/><circle cx="200" cy="200" r="31" fill="#F2C7B6"/><circle cx="200" cy="200" r="24" fill="#8a4b2d" stroke="#392E1F" stroke-width="1.5"/><polyline points="189.38,20 209.96,80 186.67,140 214.68,162 188.68,172 210.68,179 210.69,200 191.16,260 182.8,282 208.8,292 186.8,299 206.44,320 195.09,380" fill="none" stroke="#FBF6EC" stroke-width="4"/></g></svg>