<svg xmlns="http://www.w3.org/2000/svg" viewBox="0 0 880 500" width="880" height="500"><g transform="translate(10,20) scale(0.95)"><defs><clipPath id="cut-left"><polygon points="0,20 200.87,20 209.41,80 216.01,102 190.01,112 212.01,119 190.6,140 212.85,200 194.61,222 220.61,232 198.61,239 208.37,260 190.31,320 197.82,380 0,380"/></clipPath></defs><g clip-path="url(#cut-left)"><circle cx="200" cy="200" r="168" fill="none" stroke="#211d16" stroke-width="3"/><circle cx="200" cy="200" r="24" fill="#8a4b2d"/><polygon points="236.49,201.28 270.51,203.09 257.85,239.39 230.93,220.86" fill="#211d16"/><polygon points="229.34,222.93 253.87,242.05 223.58,265.12 212.38,234.01" fill="#8a4b2d"/><polygon points="209.97,234.79 219.53,267.16 180.06,267.06 189.91,235.2" fill="#8a4b2d"/><polygon points="187.91,233.2 176.41,264.29 145.21,242.56 170.87,222.77" fill="#211d16"/><polygon points="168.89,220.98 142.65,238.07 129.66,202.93 163.48,201.28" fill="#211d16"/><polygon points="163.92,198.74 131.33,197.01 143.26,161.32 170.39,180.03" fill="#b39b78"/><polygon points="171.64,177.84 146.02,157.81 175.77,134.42 187.87,166.69" fill="#6e5c44"/><polygon points="190.19,165.77 181.48,134.22 218.78,132.71 210.06,164.91" fill="#211d16"/><polygon points="212.63,165.32 223.33,135.31 255.08,157.63 229.13,177.23" fill="#211d16"/><polygon points="229.47,180.13 257.09,161.79 269.72,198 235.51,198.76" fill="#8a4b2d"/><polygon points="274.74,202.62 302.83,202.96 294.97,240.72 268.21,229.96" fill="#211d16"/><polygon points="266.68,235.04 291.66,247.96 268.54,279.01 248.99,257.2" fill="#8a4b2d"/><polygon points="244.09,259.44 262.68,283.49 226.66,299.43 218.91,271.24" fill="#211d16"/><polygon points="213.91,272.57 219.58,302.67 181.65,301.11 185.9,273.58" fill="#211d16"/><polygon points="180.86,272.11 172.4,300.47 139.51,282.6 155.53,259.95" fill="#8a4b2d"/><polygon points="151.98,256.07 131.93,278.9 108.19,249.18 134.82,234.25" fill="#6e5c44"/><polygon points="132.41,229.68 105.28,242.3 95.42,203.04 125.62,202.6" fill="#211d16"/><polygon points="124.52,197.36 96.04,197.35 105.33,158.9 132.06,170.16" fill="#b39b78"/><polygon points="134.88,165.78 107.73,151.84 132.62,122.01 151.36,143.21" fill="#211d16"/><polygon points="155.76,140.36 138.39,116.63 173.87,98.86 181.06,128.64" fill="#211d16"/><polygon points="185.94,126.65 180.7,97.4 219.83,97.64 214.02,126.86" fill="#6e5c44"/><polygon points="219.18,127.74 226.08,100.08 260.67,117.25 244.47,140.04" fill="#211d16"/><polygon points="247.88,144.09 267.35,119.87 291.9,151.82 266.01,165.32" fill="#8a4b2d"/><polygon points="267.27,170.46 295.11,158.43 303.22,195.48 273.38,197.43" fill="#6e5c44"/><polygon points="308.5,203.8 335.59,205.45 329.25,242.21 304.14,233.83" fill="#211d16"/><polygon points="299.85,240.35 325.29,250.22 307.65,283.78 285.77,267" fill="#b39b78"/><polygon points="281.22,273.15 300.54,289.31 272.87,314.74 257.31,291.7" fill="#211d16"/><polygon points="250.95,295.84 263.3,320.49 228.83,332.69 222.6,306.28" fill="#211d16"/><polygon points="215.2,308.2 218.23,334.36 181.91,334.65 185.02,306.69" fill="#211d16"/><polygon points="177.53,305.67 171.92,332.53 135.44,318.72 149.25,295.46" fill="#211d16"/><polygon points="142.89,291.37 129.37,315.27 99.2,290.92 120.16,271.9" fill="#8a4b2d"/><polygon points="115.31,266.15 93.27,283.59 75.76,251.26 98.72,240.93" fill="#211d16"/><polygon points="96.55,233.6 71.19,242.61 65.35,203.79 90.56,203.83" fill="#211d16"/><polygon points="92.36,196.23 63.87,194.43 70.96,159.21 97.15,166.59" fill="#8a4b2d"/><polygon points="100.39,159.74 73.11,149.18 92.91,116.48 114.54,133.25" fill="#8a4b2d"/><polygon points="120.04,127.99 99.89,110.47 128.11,85.43 142.21,107.53" fill="#b39b78"/><polygon points="149.29,104.62 136.41,80.79 171.35,68.53 177.41,93.78" fill="#8a4b2d"/><polygon points="185.02,93.37 180.02,66.16 219.03,65.21 215.13,92.26" fill="#211d16"/><polygon points="222.63,93.58 227.95,66.49 263.87,79.43 250.47,105.06" fill="#211d16"/><polygon points="258,107.19 270.84,85.52 300.94,108.42 280.16,127.81" fill="#8a4b2d"/><polygon points="285.14,133.5 306.5,117.12 325.53,150.11 301.64,158.92" fill="#8a4b2d"/><polygon points="303.02,166.54 328.22,158.07 334.43,194.38 308.48,196.2" fill="#211d16"/><polygon points="340.08,204.9 362.47,206.17 358.73,240.78 336.37,234.91" fill="#211d16"/><polygon points="333.07,244.19 356,250.61 340.07,282 320,271.31" fill="#6e5c44"/><polygon points="314.97,279.71 334.69,294.07 311.36,321.26 296.37,303.66" fill="#b39b78"/><polygon points="287.91,308.93 303.42,326.01 271.9,347.35 262.47,325.03" fill="#211d16"/><polygon points="253.82,329.68 262.01,350.69 229.92,361.33 224.71,337.52" fill="#211d16"/><polygon points="215.08,339.37 218.91,363.34 181.74,361.45 184.96,338.95" fill="#b39b78"/><polygon points="175.08,338.68 170.72,360 135.98,351.15 146.05,329.99" fill="#211d16"/><polygon points="137.27,325.55 126.09,345.13 97.84,328.41 112.38,308.57" fill="#211d16"/><polygon points="104.54,302.68 88.02,319.23 65.25,291.56 84.74,279.91" fill="#8a4b2d"/><polygon points="78.35,272.29 59.63,284.04 43.97,250.85 66.55,244.31" fill="#211d16"/><polygon points="63.25,235 41.8,239.31 36.22,205.43 59.38,204.92" fill="#211d16"/><polygon points="59.75,195.09 36.26,195.48 41.85,158.21 63.44,165.04" fill="#211d16"/><polygon points="66.8,155.77 44.19,148.77 59.83,116.51 79.45,128.36" fill="#8a4b2d"/><polygon points="85.3,120.48 65.98,106.12 90.16,79.57 104.78,97.59" fill="#b39b78"/><polygon points="111.79,90.7 96.18,72.9 126.54,53.85 136.79,73.5" fill="#b39b78"/><polygon points="146.16,70.28 138.49,49.57 171.98,38.62 175.17,61.83" fill="#211d16"/><polygon points="184.93,60.72 183.24,37.43 216.76,36.32 215.21,59.47" fill="#211d16"/><polygon points="224.84,61.78 230.28,39.34 261.54,49.23 253.67,70.69" fill="#211d16"/><polygon points="263.04,73.85 274.86,53.45 303.14,72.07 288.8,89.97" fill="#6e5c44"/><polygon points="296.38,96.34 310.94,79.5 333.32,105.75 315.8,119.72" fill="#211d16"/><polygon points="320.34,128.48 339.8,115.85 355.74,148.68 333.47,155.68" fill="#211d16"/><polygon points="336.77,164.99 359.05,159.56 363.68,192.94 340.52,195.08" fill="#8a4b2d"/></g></g><g transform="translate(470,20) scale(0.95)"><defs><clipPath id="cut-right"><polygon points="400,20 200.87,20 209.41,80 216.01,102 190.01,112 212.01,119 190.6,140 212.85,200 194.61,222 220.61,232 198.61,239 208.37,260 190.31,320 197.82,380 400,380"/></clipPath></defs><g clip-path="url(#cut-right)"><circle cx="200" cy="200" r="168" fill="none" stroke="#211d16" stroke-width="3"/><circle cx="200" cy="200" r="24" fill="#8a4b2d"/><polygon points="236.49,201.28 270.51,203.09 257.85,239.39 230.93,220.86" fill="#211d16"/><polygon points="229.34,222.93 253.87,242.05 223.58,265.12 212.38,234.01" fill="#8a4b2d"/><polygon points="209.97,234.79 219.53,267.16 180.06,267.06 189.91,235.2" fill="#8a4b2d"/><polygon points="187.91,233.2 176.41,264.29 145.21,242.56 170.87,222.77" fill="#211d16"/><polygon points="168.89,220.98 142.65,238.07 129.66,202.93 163.48,201.28" fill="#211d16"/><polygon points="163.92,198.74 131.33,197.01 143.26,161.32 170.39,180.03" fill="#b39b78"/><polygon points="171.64,177.84 146.02,157.81 175.77,134.42 187.87,166.69" fill="#6e5c44"/><polygon points="190.19,165.77 181.48,134.22 218.78,132.71 210.06,164.91" fill="#211d16"/><polygon points="212.63,165.32 223.33,135.31 255.08,157.63 229.13,177.23" fill="#211d16"/><polygon points="229.47,180.13 257.09,161.79 269.72,198 235.51,198.76" fill="#8a4b2d"/><polygon points="274.74,202.62 302.83,202.96 294.97,240.72 268.21,229.96" fill="#211d16"/><polygon points="266.68,235.04 291.66,247.96 268.54,279.01 248.99,257.2" fill="#8a4b2d"/><polygon points="244.09,259.44 262.68,283.49 226.66,299.43 218.91,271.24" fill="#211d16"/><polygon points="213.91,272.57 219.58,302.67 181.65,301.11 185.9,273.58" fill="#211d16"/><polygon points="180.86,272.11 172.4,300.47 139.51,282.6 155.53,259.95" fill="#8a4b2d"/><polygon points="151.98,256.07 131.93,278.9 108.19,249.18 134.82,234.25" fill="#6e5c44"/><polygon points="132.41,229.68 105.28,242.3 95.42,203.04 125.62,202.6" fill="#211d16"/><polygon points="124.52,197.36 96.04,197.35 105.33,158.9 132.06,170.16" fill="#b39b78"/><polygon points="134.88,165.78 107.73,151.84 132.62,122.01 151.36,143.21" fill="#211d16"/><polygon points="155.76,140.36 138.39,116.63 173.87,98.86 181.06,128.64" fill="#211d16"/><polygon points="185.94,126.65 180.7,97.4 219.83,97.64 214.02,126.86" fill="#6e5c44"/><polygon points="219.18,127.74 226.08,100.08 260.67,117.25 244.47,140.04" fill="#211d16"/><polygon points="247.88,144.09 267.35,119.87 291.9,151.82 266.01,165.32" fill="#8a4b2d"/><polygon points="267.27,170.46 295.11,158.43 303.22,195.48 273.38,197.43" fill="#6e5c44"/><polygon points="308.5,203.8 335.59,205.45 329.25,242.21 304.14,233.83" fill="#211d16"/><polygon points="299.85,240.35 325.29,250.22 307.65,283.78 285.77,267" fill="#b39b78"/><polygon points="281.22,273.15 300.54,289.31 272.87,314.74 257.31,291.7" fill="#211d16"/><polygon points="250.95,295.84 263.3,320.49 228.83,332.69 222.6,306.28" fill="#211d16"/><polygon points="215.2,308.2 218.23,334.36 181.91,334.65 185.02,306.69" fill="#211d16"/><polygon points="177.53,305.67 171.92,332.53 135.44,318.72 149.25,295.46" fill="#211d16"/><polygon points="142.89,291.37 129.37,315.27 99.2,290.92 120.16,271.9" fill="#8a4b2d"/><polygon points="115.31,266.15 93.27,283.59 75.76,251.26 98.72,240.93" fill="#211d16"/><polygon points="96.55,233.6 71.19,242.61 65.35,203.79 90.56,203.83" fill="#211d16"/><polygon points="92.36,196.23 63.87,194.43 70.96,159.21 97.15,166.59" fill="#8a4b2d"/><polygon points="100.39,159.74 73.11,149.18 92.91,116.48 114.54,133.25" fill="#8a4b2d"/><polygon points="120.04,127.99 99.89,110.47 128.11,85.43 142.21,107.53" fill="#b39b78"/><polygon points="149.29,104.62 136.41,80.79 171.35,68.53 177.41,93.78" fill="#8a4b2d"/><polygon points="185.02,93.37 180.02,66.16 219.03,65.21 215.13,92.26" fill="#211d16"/><polygon points="222.63,93.58 227.95,66.49 263.87,79.43 250.47,105.06" fill="#211d16"/><polygon points="258,107.19 270.84,85.52 300.94,108.42 280.16,127.81" fill="#8a4b2d"/><polygon points="285.14,133.5 306.5,117.12 325.53,150.11 301.64,158.92" fill="#8a4b2d"/><polygon points="303.02,166.54 328.22,158.07 334.43,194.38 308.48,196.2" fill="#211d16"/><polygon points="340.08,204.9 362.47,206.17 358.73,240.78 336.37,234.91" fill="#211d16"/><polygon points="333.07,244.19 356,250.61 340.07,282 320,271.31" fill="#6e5c44"/><polygon points="314.97,279.71 334.69,294.07 311.36,321.26 296.37,303.66" fill="#b39b78"/><polygon points="287.91,308.93 303.42,326.01 271.9,347.35 262.47,325.03" fill="#211d16"/><polygon points="253.82,329.68 262.01,350.69 229.92,361.33 224.71,337.52" fill="#211d16"/><polygon points="215.08,339.37 218.91,363.34 181.74,361.45 184.96,338.95" fill="#b39b78"/><polygon points="175.08,338.68 170.72,360 135.98,351.15 146.05,329.99" fill="#211d16"/><polygon points="137.27,325.55 126.09,345.13 97.84,328.41 112.38,308.57" fill="#211d16"/><polygon points="104.54,302.68 88.02,319.23 65.25,291.56 84.74,279.91" fill="#8a4b2d"/><polygon points="78.35,272.29 59.63,284.04 43.97,250.85 66.55,244.31" fill="#211d16"/><polygon points="63.25,235 41.8,239.31 36.22,205.43 59.38,204.92" fill="#211d16"/><polygon points="59.75,195.09 36.26,195.48 41.85,158.21 63.44,165.04" fill="#211d16"/><polygon points="66.8,155.77 44.19,148.77 59.83,116.51 79.45,128.36" fill="#8a4b2d"/><polygon points="85.3,120.48 65.98,106.12 90.16,79.57 104.78,97.59" fill="#b39b78"/><polygon points="111.79,90.7 96.18,72.9 126.54,53.85 136.79,73.5" fill="#b39b78"/><polygon points="146.16,70.28 138.49,49.57 171.98,38.62 175.17,61.83" fill="#211d16"/><polygon points="184.93,60.72 183.24,37.43 216.76,36.32 215.21,59.47" fill="#211d16"/><polygon points="224.84,61.78 230.28,39.34 261.54,49.23 253.67,70.69" fill="#211d16"/><polygon points="263.04,73.85 274.86,53.45 303.14,72.07 288.8,89.97" fill="#6e5c44"/><polygon points="296.38,96.34 310.94,79.5 333.32,105.75 315.8,119.72" fill="#211d16"/><polygon points="320.34,128.48 339.8,115.85 355.74,148.68 333.47,155.68" fill="#211d16"/><polygon points="336.77,164.99 359.05,159.56 363.68,192.94 340.52,195.08" fill="#8a4b2d"/></g></g><line x1="440" y1="10" x2="440" y2="430" stroke="#211d16" stroke-width="1" stroke-dasharray="6,6"/><text x="200" y="440" text-anchor="middle" font-family="monospace" font-size="16" fill="#211d16">TSR-5219-d896 - keep this half</text><text x="660" y="440" text-anchor="middle" font-family="monospace" font-size="16" fill="#211d16">TSR-5219-d896 - travels with the letter</text><text x="440" y="475" text-anchor="middle" font-family="serif" font-size="14" fill="#211d16">Cut along the dashed line. The broken edge is the signature; the halves must meet.</text><g transform="translate(800,410) scale(0.18)"><circle cx="200" cy="200" r="168" fill="none" stroke="#211d16" stroke-width="3"/><circle cx="200" cy="200" r="24" fill="#8a4b2d"/><polygon points="236.49,201.28 270.51,203.09 257.85,239.39 230.93,220.86" fill="#211d16"/><polygon points="229.34,222.93 253.87,242.05 223.58,265.12 212.38,234.01" fill="#8a4b2d"/><polygon points="209.97,234.79 219.53,267.16 180.06,267.06 189.91,235.2" fill="#8a4b2d"/><polygon points="187.91,233.2 176.41,264.29 145.21,242.56 170.87,222.77" fill="#211d16"/><polygon points="168.89,220.98 142.65,238.07 129.66,202.93 163.48,201.28" fill="#211d16"/><polygon points="163.92,198.74 131.33,197.01 143.26,161.32 170.39,180.03" fill="#b39b78"/><polygon points="171.64,177.84 146.02,157.81 175.77,134.42 187.87,166.69" fill="#6e5c44"/><polygon points="190.19,165.77 181.48,134.22 218.78,132.71 210.06,164.91" fill="#211d16"/><polygon points="212.63,165.32 223.33,135.31 255.08,157.63 229.13,177.23" fill="#211d16"/><polygon points="229.47,180.13 257.09,161.79 269.72,198 235.51,198.76" fill="#8a4b2d"/><polygon points="274.74,202.62 302.83,202.96 294.97,240.72 268.21,229.96" fill="#211d16"/><polygon points="266.68,235.04 291.66,247.96 268.54,279.01 248.99,257.2" fill="#8a4b2d"/><polygon points="244.09,259.44 262.68,283.49 226.66,299.43 218.91,271.24" fill="#211d16"/><polygon points="213.91,272.57 219.58,302.67 181.65,301.11 185.9,273.58" fill="#211d16"/><polygon points="180.86,272.11 172.4,300.47 139.51,282.6 155.53,259.95" fill="#8a4b2d"/><polygon points="151.98,256.07 131.93,278.9 108.19,249.18 134.82,234.25" fill="#6e5c44"/><polygon points="132.41,229.68 105.28,242.3 95.42,203.04 125.62,202.6" fill="#211d16"/><polygon points="124.52,197.36 96.04,197.35 105.33,158.9 132.06,170.16" fill="#b39b78"/><polygon points="134.88,165.78 107.73,151.84 132.62,122.01 151.36,143.21" fill="#211d16"/><polygon points="155.76,140.36 138.39,116.63 173.87,98.86 181.06,128.64" fill="#211d16"/><polygon points="185.94,126.65 180.7,97.4 219.83,97.64 214.02,126.86" fill="#6e5c44"/><polygon points="219.18,127.74 226.08,100.08 260.67,117.25 244.47,140.04" fill="#211d16"/><polygon points="247.88,144.09 267.35,119.87 291.9,151.82 266.01,165.32" fill="#8a4b2d"/><polygon points="267.27,170.46 295.11,158.43 303.22,195.48 273.38,197.43" fill="#6e5c44"/><polygon points="308.5,203.8 335.59,205.45 329.25,242.21 304.14,233.83" fill="#211d16"/><polygon points="299.85,240.35 325.29,250.22 307.65,283.78 285.77,267" fill="#b39b78"/><polygon points="281.22,273.15 300.54,289.31 272.87,314.74 257.31,291.7" fill="#211d16"/><polygon points="250.95,295.84 263.3,320.49 228.83,332.69 222.6,306.28" fill="#211d16"/><polygon points="215.2,308.2 218.23,334.36 181.91,334.65 185.02,306.69" fill="#211d16"/><polygon points="177.53,305.67 171.92,332.53 135.44,318.72 149.25,295.46" fill="#211d16"/><polygon points="142.89,291.37 129.37,315.27 99.2,290.92 120.16,271.9" fill="#8a4b2d"/><polygon points="115.31,266.15 93.27,283.59 75.76,251.26 98.72,240.93" fill="#211d16"/><polygon points="96.55,233.6 71.19,242.61 65.35,203.79 90.56,203.83" fill="#211d16"/><polygon points="92.36,196.23 63.87,194.43 70.96,159.21 97.15,166.59" fill="#8a4b2d"/><polygon points="100.39,159.74 73.11,149.18 92.91,116.48 114.54,133.25" fill="#8a4b2d"/><polygon points="120.04,127.99 99.89,110.47 128.11,85.43 142.21,107.53" fill="#b39b78"/><polygon points="149.29,104.62 136.41,80.79 171.35,68.53 177.41,93.78" fill="#8a4b2d"/><polygon points="185.02,93.37 180.02,66.16 219.03,65.21 215.13,92.26" fill="#211d16"/><polygon points="222.63,93.58 227.95,66.49 263.87,79.43 250.47,105.06" fill="#211d16"/><polygon points="258,107.19 270.84,85.52 300.94,108.42 280.16,127.81" fill="#8a4b2d"/><polygon points="285.14,133.5 306.5,117.12 325.53,150.11 301.64,158.92" fill="#8a4b2d"/><polygon points="303.02,166.54 328.22,158.07 334.43,194.38 308.48,196.2" fill="#211d16"/><polygon points="340.08,204.9 362.47,206.17 358.73,240.78 336.37,234.91" fill="#211d16"/><polygon points="333.07,244.19 356,250.61 340.07,282 320,271.31" fill="#6e5c44"/><polygon points="314.97,279.71 334.69,294.07 311.36,321.26 296.37,303.66" fill="#b39b78"/><polygon points="287.91,308.93 303.42,326.01 271.9,347.35 262.47,325.03" fill="#211d16"/><polygon points="253.82,329.68 262.01,350.69 229.92,361.33 224.71,337.52" fill="#211d16"/><polygon points="215.08,339.37 218.91,363.34 181.74,361.45 184.96,338.95" fill="#b39b78"/><polygon points="175.08,338.68 170.72,360 135.98,351.15 146.05,329.99" fill="#211d16"/><polygon points="137.27,325.55 126.09,345.13 97.84,328.41 112.38,308.57" fill="#211d16"/><polygon points="104.54,302.68 88.02,319.23 65.25,291.56 84.74,279.91" fill="#8a4b2d"/><polygon points="78.35,272.29 59.63,284.04 43.97,250.85 66.55,244.31" fill="#211d16"/><polygon points="63.25,235 41.8,239.31 36.22,205.43 59.38,204.92" fill="#211d16"/><polygon points="59.75,195.09 36.26,195.48 41.85,158.21 63.44,165.04" fill="#211d16"/><polygon points="66.8,155.77 44.19,148.77 59.83,116.51 79.45,128.36" fill="#8a4b2d"/><polygon points="85.3,120.48 65.98,106.12 90.16,79.57 104.78,97.59" fill="#b39b78"/><polygon points="111.79,90.7 96.18,72.9 126.54,53.85 136.79,73.5" fill="#b39b78"/><polygon points="146.16,70.28 138.49,49.57 171.98,38.62 175.17,61.83" fill="#211d16"/><polygon points="184.93,60.72 183.24,37.43 216.76,36.32 215.21,59.47" fill="#211d16"/><polygon points="224.84,61.78 230.28,39.34 261.54,49.23 253.67,70.69" fill="#211d16"/><polygon points="263.04,73.85 274.86,53.45 303.14,72.07 288.8,89.97" fill="#6e5c44"/><polygon points="296.38,96.34 310.94,79.5 333.32,105.75 315.8,119.72" fill="#211d16"/><polygon points="320.34,128.48 339.8,115.85 355.74,148.68 333.47,155.68" fill="#211d16"/><polygon points="336.77,164.99 359.05,159.56 363.68,192.94 340.52,195.08" fill="#8a4b2d"/><polyline points="200.87,20 209.41,80 216.01,102 190.01,112 212.01,119 190.6,140 212.85,200 194.61,222 220.61,232 198.61,239 208.37,260 190.31,320 197.82,380" fill="none" stroke="#f7f3ea" stroke-width="4"/></g></svg>