<svg xmlns="http://www.w3.org/2000/svg" viewBox="0 0 880 500" width="880" height="500"><g transform="translate(10,20) scale(0.95)"><defs><clipPath id="cut-left"><polygon points="0,20 204.76,20 202.02,80 179.42,102 205.42,112 183.42,119 188.81,140 180.24,200 210.89,222 184.89,232 206.89,239 209.54,260 198.54,320 198.79,380 0,380"/></clipPath></defs><g clip-path="url(#cut-left)"><circle cx="200" cy="200" r="168" fill="none" stroke="#211d16" stroke-width="3"/><circle cx="200" cy="200" r="24" fill="#8a4b2d"/><polygon points="235.87,201.26 269.24,202.42 257.97,238.98 229.43,219.85" fill="#211d16"/><polygon points="228.45,222.23 254.11,241.91 223.46,265.48 212.17,233.44" fill="#211d16"/><polygon points="209.98,234.83 219.24,266.45 181.35,266.34 189.71,235.91" fill="#6e5c44"/><polygon points="187.25,235.02 176.7,265.97 144.72,242.99 170.84,222.78" fill="#6e5c44"/><polygon points="170.68,219.77 142.17,238.68 130.58,202.67 163.93,201.26" fill="#6e5c44"/><polygon points="163.23,198.71 129.59,197.77 143.41,161.1 170.52,180.12" fill="#211d16"/><polygon points="171.92,178.05 144.57,157.47 176.16,133.69 187.23,164.93" fill="#211d16"/><polygon points="189.8,164.42 181.21,133.04 219.15,133.97 210.34,163.93" fill="#211d16"/><polygon points="212.53,165.58 223.86,134.68 254.37,157.94 227.96,178.15" fill="#8a4b2d"/><polygon points="231.17,178.98 257.17,161.38 269.97,198.12 236.16,198.73" fill="#6e5c44"/><polygon points="273.88,202.59 304.18,202.76 293.6,241.83 268.8,230.21" fill="#211d16"/><polygon points="266.94,235.17 292.58,248.16 266.85,279.12 248.97,257.18" fill="#211d16"/><polygon points="243.67,258.87 261.9,284.04 225.55,299.29 219.07,271.86" fill="#211d16"/><polygon points="213.8,272.01 219.24,302.75 181.58,301.53 186.04,272.82" fill="#8a4b2d"/><polygon points="180.92,271.88 173.28,300.44 137.73,283.61 155.7,259.72" fill="#b39b78"/><polygon points="151.73,256.36 132.35,278.53 108.04,247.57 135.02,234.14" fill="#211d16"/><polygon points="130.75,230.41 105.22,242.08 96.06,203.52 124.94,202.63" fill="#b39b78"/><polygon points="126.37,197.42 95.51,196.61 103.94,158.82 131.96,170.12" fill="#211d16"/><polygon points="133.25,164.93 107.38,151.59 131.45,121.54 152.31,144.32" fill="#211d16"/><polygon points="156.15,140.89 138.37,117.3 173.95,100.84 181.09,128.74" fill="#8a4b2d"/><polygon points="186,126.96 181.35,97.55 220.51,97.48 213.82,127.92" fill="#211d16"/><polygon points="218.92,128.7 226.35,99.7 261.51,117.78 244.69,139.74" fill="#8a4b2d"/><polygon points="249.01,142.77 267.28,122.66 292.35,151.63 266.53,165.04" fill="#8a4b2d"/><polygon points="267.71,170.26 294.83,158.38 303.66,195.39 275.29,197.36" fill="#211d16"/><polygon points="307.92,203.78 335.22,205.11 328.01,240.8 303.83,233.73" fill="#8a4b2d"/><polygon points="301.44,241 325.98,249.82 305.9,282.93 286.35,267.45" fill="#211d16"/><polygon points="281.4,273.31 299.67,290.38 273.01,315.02 257.41,291.86" fill="#b39b78"/><polygon points="250.93,295.81 264.27,319.43 227.03,332.26 222.69,306.7" fill="#211d16"/><polygon points="215.1,307.49 218.76,333.22 179.73,335.16 184.75,308.61" fill="#8a4b2d"/><polygon points="177.61,305.31 173.3,331.67 137.02,318.81 148.89,296.14" fill="#211d16"/><polygon points="141.91,292.95 127.75,315.82 98.59,290.42 119.02,272.93" fill="#8a4b2d"/><polygon points="115.33,266.14 92.31,282.98 74.54,249.61 98.32,241.09" fill="#8a4b2d"/><polygon points="96.33,233.67 70.62,242.72 64.98,205.14 91.11,203.81" fill="#8a4b2d"/><polygon points="91.89,196.21 65.7,195.84 70.19,158.24 97.05,166.56" fill="#211d16"/><polygon points="99.79,159.5 73.59,149.37 92.76,116.62 113.73,132.61" fill="#8a4b2d"/><polygon points="118.54,126.64 98.69,109.28 129.54,85.33 142.7,108.32" fill="#8a4b2d"/><polygon points="148.95,103.97 136.67,78.95 172.79,67.09 177.64,94.85" fill="#b39b78"/><polygon points="184.91,92.58 180.78,66.71 219.03,66.46 215.21,91.71" fill="#b39b78"/><polygon points="222.38,94.77 226.93,67.7 262.58,79.54 251.21,103.67" fill="#6e5c44"/><polygon points="257.2,108.48 271.03,83.86 301.01,109.08 279.87,128.07" fill="#8a4b2d"/><polygon points="284.91,133.68 306.87,115.77 325.76,148.53 300.13,159.53" fill="#211d16"/><polygon points="302.86,166.59 329.5,157.71 334.86,195.77 307.56,196.23" fill="#211d16"/><polygon points="339.7,204.89 364.24,204.87 358.67,241.83 337.16,235.11" fill="#b39b78"/><polygon points="332.48,243.99 355.58,253.08 341.85,283.41 321.01,271.91" fill="#b39b78"/><polygon points="316,280.42 334.72,292.84 311.19,321.43 296.35,303.63" fill="#211d16"/><polygon points="288.45,309.61 302.23,327.02 272.45,346.03 262.59,325.26" fill="#211d16"/><polygon points="253.59,329.13 262.98,350.07 228.17,359.94 224.9,338.58" fill="#6e5c44"/><polygon points="215.08,339.31 216.45,361.6 182.35,361.82 184.77,340.73" fill="#8a4b2d"/><polygon points="175.16,338.24 170.5,360.56 136.65,350.66 145.99,330.13" fill="#211d16"/><polygon points="137.56,324.96 127.49,346.87 98.11,326.56 111.26,309.97" fill="#211d16"/><polygon points="103.54,303.75 89.73,320.25 64.9,292.88 83.63,280.68" fill="#8a4b2d"/><polygon points="78.53,272.19 59.87,284.59 45.71,251.14 66.76,244.24" fill="#211d16"/><polygon points="63.78,234.87 42.69,240.11 35.57,205.23 60.39,204.89" fill="#211d16"/><polygon points="60.27,195.11 37.01,194.64 42.35,159.74 64.63,165.35" fill="#211d16"/><polygon points="65.84,155.45 45.18,147.06 59.05,118.09 79.19,128.21" fill="#211d16"/><polygon points="84.06,119.62 65.53,106.86 89.59,79.08 104.22,96.99" fill="#211d16"/><polygon points="111.58,90.43 98.43,71.94 126.02,54.1 136.85,73.63" fill="#8a4b2d"/><polygon points="146.3,70.61 137.8,50.02 171.67,39.78 174.98,60.79" fill="#211d16"/><polygon points="184.92,60.66 182.09,37.61 218.5,37.29 215.16,59.89" fill="#b39b78"/><polygon points="224.86,61.66 229.89,40.25 261.66,48.85 254.04,69.78" fill="#b39b78"/><polygon points="262.45,75.02 273.59,52.88 302.46,72.27 288.19,90.72" fill="#211d16"/><polygon points="295.32,97.47 310.38,79.49 333.82,107.69 315.25,120.1" fill="#211d16"/><polygon points="321.17,127.99 340.71,117.98 355.03,149.84 333.15,155.79" fill="#211d16"/><polygon points="336.63,165.03 359.02,159.8 363.56,194.9 340.46,195.08" fill="#211d16"/></g></g><g transform="translate(470,20) scale(0.95)"><defs><clipPath id="cut-right"><polygon points="400,20 204.76,20 202.02,80 179.42,102 205.42,112 183.42,119 188.81,140 180.24,200 210.89,222 184.89,232 206.89,239 209.54,260 198.54,320 198.79,380 400,380"/></clipPath></defs><g clip-path="url(#cut-right)"><circle cx="200" cy="200" r="168" fill="none" stroke="#211d16" stroke-width="3"/><circle cx="200" cy="200" r="24" fill="#8a4b2d"/><polygon points="235.87,201.26 269.24,202.42 257.97,238.98 229.43,219.85" fill="#211d16"/><polygon points="228.45,222.23 254.11,241.91 223.46,265.48 212.17,233.44" fill="#211d16"/><polygon points="209.98,234.83 219.24,266.45 181.35,266.34 189.71,235.91" fill="#6e5c44"/><polygon points="187.25,235.02 176.7,265.97 144.72,242.99 170.84,222.78" fill="#6e5c44"/><polygon points="170.68,219.77 142.17,238.68 130.58,202.67 163.93,201.26" fill="#6e5c44"/><polygon points="163.23,198.71 129.59,197.77 143.41,161.1 170.52,180.12" fill="#211d16"/><polygon points="171.92,178.05 144.57,157.47 176.16,133.69 187.23,164.93" fill="#211d16"/><polygon points="189.8,164.42 181.21,133.04 219.15,133.97 210.34,163.93" fill="#211d16"/><polygon points="212.53,165.58 223.86,134.68 254.37,157.94 227.96,178.15" fill="#8a4b2d"/><polygon points="231.17,178.98 257.17,161.38 269.97,198.12 236.16,198.73" fill="#6e5c44"/><polygon points="273.88,202.59 304.18,202.76 293.6,241.83 268.8,230.21" fill="#211d16"/><polygon points="266.94,235.17 292.58,248.16 266.85,279.12 248.97,257.18" fill="#211d16"/><polygon points="243.67,258.87 261.9,284.04 225.55,299.29 219.07,271.86" fill="#211d16"/><polygon points="213.8,272.01 219.24,302.75 181.58,301.53 186.04,272.82" fill="#8a4b2d"/><polygon points="180.92,271.88 173.28,300.44 137.73,283.61 155.7,259.72" fill="#b39b78"/><polygon points="151.73,256.36 132.35,278.53 108.04,247.57 135.02,234.14" fill="#211d16"/><polygon points="130.75,230.41 105.22,242.08 96.06,203.52 124.94,202.63" fill="#b39b78"/><polygon points="126.37,197.42 95.51,196.61 103.94,158.82 131.96,170.12" fill="#211d16"/><polygon points="133.25,164.93 107.38,151.59 131.45,121.54 152.31,144.32" fill="#211d16"/><polygon points="156.15,140.89 138.37,117.3 173.95,100.84 181.09,128.74" fill="#8a4b2d"/><polygon points="186,126.96 181.35,97.55 220.51,97.48 213.82,127.92" fill="#211d16"/><polygon points="218.92,128.7 226.35,99.7 261.51,117.78 244.69,139.74" fill="#8a4b2d"/><polygon points="249.01,142.77 267.28,122.66 292.35,151.63 266.53,165.04" fill="#8a4b2d"/><polygon points="267.71,170.26 294.83,158.38 303.66,195.39 275.29,197.36" fill="#211d16"/><polygon points="307.92,203.78 335.22,205.11 328.01,240.8 303.83,233.73" fill="#8a4b2d"/><polygon points="301.44,241 325.98,249.82 305.9,282.93 286.35,267.45" fill="#211d16"/><polygon points="281.4,273.31 299.67,290.38 273.01,315.02 257.41,291.86" fill="#b39b78"/><polygon points="250.93,295.81 264.27,319.43 227.03,332.26 222.69,306.7" fill="#211d16"/><polygon points="215.1,307.49 218.76,333.22 179.73,335.16 184.75,308.61" fill="#8a4b2d"/><polygon points="177.61,305.31 173.3,331.67 137.02,318.81 148.89,296.14" fill="#211d16"/><polygon points="141.91,292.95 127.75,315.82 98.59,290.42 119.02,272.93" fill="#8a4b2d"/><polygon points="115.33,266.14 92.31,282.98 74.54,249.61 98.32,241.09" fill="#8a4b2d"/><polygon points="96.33,233.67 70.62,242.72 64.98,205.14 91.11,203.81" fill="#8a4b2d"/><polygon points="91.89,196.21 65.7,195.84 70.19,158.24 97.05,166.56" fill="#211d16"/><polygon points="99.79,159.5 73.59,149.37 92.76,116.62 113.73,132.61" fill="#8a4b2d"/><polygon points="118.54,126.64 98.69,109.28 129.54,85.33 142.7,108.32" fill="#8a4b2d"/><polygon points="148.95,103.97 136.67,78.95 172.79,67.09 177.64,94.85" fill="#b39b78"/><polygon points="184.91,92.58 180.78,66.71 219.03,66.46 215.21,91.71" fill="#b39b78"/><polygon points="222.38,94.77 226.93,67.7 262.58,79.54 251.21,103.67" fill="#6e5c44"/><polygon points="257.2,108.48 271.03,83.86 301.01,109.08 279.87,128.07" fill="#8a4b2d"/><polygon points="284.91,133.68 306.87,115.77 325.76,148.53 300.13,159.53" fill="#211d16"/><polygon points="302.86,166.59 329.5,157.71 334.86,195.77 307.56,196.23" fill="#211d16"/><polygon points="339.7,204.89 364.24,204.87 358.67,241.83 337.16,235.11" fill="#b39b78"/><polygon points="332.48,243.99 355.58,253.08 341.85,283.41 321.01,271.91" fill="#b39b78"/><polygon points="316,280.42 334.72,292.84 311.19,321.43 296.35,303.63" fill="#211d16"/><polygon points="288.45,309.61 302.23,327.02 272.45,346.03 262.59,325.26" fill="#211d16"/><polygon points="253.59,329.13 262.98,350.07 228.17,359.94 224.9,338.58" fill="#6e5c44"/><polygon points="215.08,339.31 216.45,361.6 182.35,361.82 184.77,340.73" fill="#8a4b2d"/><polygon points="175.16,338.24 170.5,360.56 136.65,350.66 145.99,330.13" fill="#211d16"/><polygon points="137.56,324.96 127.49,346.87 98.11,326.56 111.26,309.97" fill="#211d16"/><polygon points="103.54,303.75 89.73,320.25 64.9,292.88 83.63,280.68" fill="#8a4b2d"/><polygon points="78.53,272.19 59.87,284.59 45.71,251.14 66.76,244.24" fill="#211d16"/><polygon points="63.78,234.87 42.69,240.11 35.57,205.23 60.39,204.89" fill="#211d16"/><polygon points="60.27,195.11 37.01,194.64 42.35,159.74 64.63,165.35" fill="#211d16"/><polygon points="65.84,155.45 45.18,147.06 59.05,118.09 79.19,128.21" fill="#211d16"/><polygon points="84.06,119.62 65.53,106.86 89.59,79.08 104.22,96.99" fill="#211d16"/><polygon points="111.58,90.43 98.43,71.94 126.02,54.1 136.85,73.63" fill="#8a4b2d"/><polygon points="146.3,70.61 137.8,50.02 171.67,39.78 174.98,60.79" fill="#211d16"/><polygon points="184.92,60.66 182.09,37.61 218.5,37.29 215.16,59.89" fill="#b39b78"/><polygon points="224.86,61.66 229.89,40.25 261.66,48.85 254.04,69.78" fill="#b39b78"/><polygon points="262.45,75.02 273.59,52.88 302.46,72.27 288.19,90.72" fill="#211d16"/><polygon points="295.32,97.47 310.38,79.49 333.82,107.69 315.25,120.1" fill="#211d16"/><polygon points="321.17,127.99 340.71,117.98 355.03,149.84 333.15,155.79" fill="#211d16"/><polygon points="336.63,165.03 359.02,159.8 363.56,194.9 340.46,195.08" fill="#211d16"/></g></g><line x1="440" y1="10" x2="440" y2="430" stroke="#211d16" stroke-width="1" stroke-dasharray="6,6"/><text x="200" y="440" text-anchor="middle" font-family="monospace" font-size="16" fill="#211d16">TSR-4d80-aef7 - keep this half</text><text x="660" y="440" text-anchor="middle" font-family="monospace" font-size="16" fill="#211d16">TSR-4d80-aef7 - travels with the letter</text><text x="440" y="475" text-anchor="middle" font-family="serif" font-size="14" fill="#211d16">Cut along the dashed line. The broken edge is the signature; the halves must meet.</text><g transform="translate(800,410) scale(0.18)"><circle cx="200" cy="200" r="168" fill="none" stroke="#211d16" stroke-width="3"/><circle cx="200" cy="200" r="24" fill="#8a4b2d"/><polygon points="235.87,201.26 269.24,202.42 257.97,238.98 229.43,219.85" fill="#211d16"/><polygon points="228.45,222.23 254.11,241.91 223.46,265.48 212.17,233.44" fill="#211d16"/><polygon points="209.98,234.83 219.24,266.45 181.35,266.34 189.71,235.91" fill="#6e5c44"/><polygon points="187.25,235.02 176.7,265.97 144.72,242.99 170.84,222.78" fill="#6e5c44"/><polygon points="170.68,219.77 142.17,238.68 130.58,202.67 163.93,201.26" fill="#6e5c44"/><polygon points="163.23,198.71 129.59,197.77 143.41,161.1 170.52,180.12" fill="#211d16"/><polygon points="171.92,178.05 144.57,157.47 176.16,133.69 187.23,164.93" fill="#211d16"/><polygon points="189.8,164.42 181.21,133.04 219.15,133.97 210.34,163.93" fill="#211d16"/><polygon points="212.53,165.58 223.86,134.68 254.37,157.94 227.96,178.15" fill="#8a4b2d"/><polygon points="231.17,178.98 257.17,161.38 269.97,198.12 236.16,198.73" fill="#6e5c44"/><polygon points="273.88,202.59 304.18,202.76 293.6,241.83 268.8,230.21" fill="#211d16"/><polygon points="266.94,235.17 292.58,248.16 266.85,279.12 248.97,257.18" fill="#211d16"/><polygon points="243.67,258.87 261.9,284.04 225.55,299.29 219.07,271.86" fill="#211d16"/><polygon points="213.8,272.01 219.24,302.75 181.58,301.53 186.04,272.82" fill="#8a4b2d"/><polygon points="180.92,271.88 173.28,300.44 137.73,283.61 155.7,259.72" fill="#b39b78"/><polygon points="151.73,256.36 132.35,278.53 108.04,247.57 135.02,234.14" fill="#211d16"/><polygon points="130.75,230.41 105.22,242.08 96.06,203.52 124.94,202.63" fill="#b39b78"/><polygon points="126.37,197.42 95.51,196.61 103.94,158.82 131.96,170.12" fill="#211d16"/><polygon points="133.25,164.93 107.38,151.59 131.45,121.54 152.31,144.32" fill="#211d16"/><polygon points="156.15,140.89 138.37,117.3 173.95,100.84 181.09,128.74" fill="#8a4b2d"/><polygon points="186,126.96 181.35,97.55 220.51,97.48 213.82,127.92" fill="#211d16"/><polygon points="218.92,128.7 226.35,99.7 261.51,117.78 244.69,139.74" fill="#8a4b2d"/><polygon points="249.01,142.77 267.28,122.66 292.35,151.63 266.53,165.04" fill="#8a4b2d"/><polygon points="267.71,170.26 294.83,158.38 303.66,195.39 275.29,197.36" fill="#211d16"/><polygon points="307.92,203.78 335.22,205.11 328.01,240.8 303.83,233.73" fill="#8a4b2d"/><polygon points="301.44,241 325.98,249.82 305.9,282.93 286.35,267.45" fill="#211d16"/><polygon points="281.4,273.31 299.67,290.38 273.01,315.02 257.41,291.86" fill="#b39b78"/><polygon points="250.93,295.81 264.27,319.43 227.03,332.26 222.69,306.7" fill="#211d16"/><polygon points="215.1,307.49 218.76,333.22 179.73,335.16 184.75,308.61" fill="#8a4b2d"/><polygon points="177.61,305.31 173.3,331.67 137.02,318.81 148.89,296.14" fill="#211d16"/><polygon points="141.91,292.95 127.75,315.82 98.59,290.42 119.02,272.93" fill="#8a4b2d"/><polygon points="115.33,266.14 92.31,282.98 74.54,249.61 98.32,241.09" fill="#8a4b2d"/><polygon points="96.33,233.67 70.62,242.72 64.98,205.14 91.11,203.81" fill="#8a4b2d"/><polygon points="91.89,196.21 65.7,195.84 70.19,158.24 97.05,166.56" fill="#211d16"/><polygon points="99.79,159.5 73.59,149.37 92.76,116.62 113.73,132.61" fill="#8a4b2d"/><polygon points="118.54,126.64 98.69,109.28 129.54,85.33 142.7,108.32" fill="#8a4b2d"/><polygon points="148.95,103.97 136.67,78.95 172.79,67.09 177.64,94.85" fill="#b39b78"/><polygon points="184.91,92.58 180.78,66.71 219.03,66.46 215.21,91.71" fill="#b39b78"/><polygon points="222.38,94.77 226.93,67.7 262.58,79.54 251.21,103.67" fill="#6e5c44"/><polygon points="257.2,108.48 271.03,83.86 301.01,109.08 279.87,128.07" fill="#8a4b2d"/><polygon points="284.91,133.68 306.87,115.77 325.76,148.53 300.13,159.53" fill="#211d16"/><polygon points="302.86,166.59 329.5,157.71 334.86,195.77 307.56,196.23" fill="#211d16"/><polygon points="339.7,204.89 364.24,204.87 358.67,241.83 337.16,235.11" fill="#b39b78"/><polygon points="332.48,243.99 355.58,253.08 341.85,283.41 321.01,271.91" fill="#b39b78"/><polygon points="316,280.42 334.72,292.84 311.19,321.43 296.35,303.63" fill="#211d16"/><polygon points="288.45,309.61 302.23,327.02 272.45,346.03 262.59,325.26" fill="#211d16"/><polygon points="253.59,329.13 262.98,350.07 228.17,359.94 224.9,338.58" fill="#6e5c44"/><polygon points="215.08,339.31 216.45,361.6 182.35,361.82 184.77,340.73" fill="#8a4b2d"/><polygon points="175.16,338.24 170.5,360.56 136.65,350.66 145.99,330.13" fill="#211d16"/><polygon points="137.56,324.96 127.49,346.87 98.11,326.56 111.26,309.97" fill="#211d16"/><polygon points="103.54,303.75 89.73,320.25 64.9,292.88 83.63,280.68" fill="#8a4b2d"/><polygon points="78.53,272.19 59.87,284.59 45.71,251.14 66.76,244.24" fill="#211d16"/><polygon points="63.78,234.87 42.69,240.11 35.57,205.23 60.39,204.89" fill="#211d16"/><polygon points="60.27,195.11 37.01,194.64 42.35,159.74 64.63,165.35" fill="#211d16"/><polygon points="65.84,155.45 45.18,147.06 59.05,118.09 79.19,128.21" fill="#211d16"/><polygon points="84.06,119.62 65.53,106.86 89.59,79.08 104.22,96.99" fill="#211d16"/><polygon points="111.58,90.43 98.43,71.94 126.02,54.1 136.85,73.63" fill="#8a4b2d"/><polygon points="146.3,70.61 137.8,50.02 171.67,39.78 174.98,60.79" fill="#211d16"/><polygon points="184.92,60.66 182.09,37.61 218.5,37.29 215.16,59.89" fill="#b39b78"/><polygon points="224.86,61.66 229.89,40.25 261.66,48.85 254.04,69.78" fill="#b39b78"/><polygon points="262.45,75.02 273.59,52.88 302.46,72.27 288.19,90.72" fill="#211d16"/><polygon points="295.32,97.47 310.38,79.49 333.82,107.69 315.25,120.1" fill="#211d16"/><polygon points="321.17,127.99 340.71,117.98 355.03,149.84 333.15,155.79" fill="#211d16"/><polygon points="336.63,165.03 359.02,159.8 363.56,194.9 340.46,195.08" fill="#211d16"/><polyline points="204.76,20 202.02,80 179.42,102 205.42,112 183.42,119 188.81,140 180.24,200 210.89,222 184.89,232 206.89,239 209.54,260 198.54,320 198.79,380" fill="none" stroke="#f7f3ea" stroke-width="4"/></g></svg>